<?xml version="1.0" encoding="UTF-8" standalone="no"?>
<!DOCTYPE svg PUBLIC "-//W3C//DTD SVG 1.1//EN" "http://www.w3.org/Graphics/SVG/1.1/DTD/svg11.dtd">
<svg width="100%" height="100%" viewBox="0 0 1024 1024" version="1.1" xmlns="http://www.w3.org/2000/svg"
     xmlns:xlink="http://www.w3.org/1999/xlink" xml:space="preserve" xmlns:serif="http://www.serif.com/"
     style="fill-rule:evenodd;clip-rule:evenodd;stroke-linejoin:round;stroke-miterlimit:2;">
    <g>
        <path d="M824.686,516.746c-13.101,-63.038 -44.724,-121.362 -91.232,-166.026c-46.543,-44.695 -105.92,-74.839 -169.676,-85.277c-64.875,-10.623 -133.436,-0.958 -192.364,28.408c-57.08,28.444 -105.336,73.221 -136.818,128.816c-65.248,115.223 -52.136,264.381 34.848,364.945c41.937,48.485 97.539,84.376 159.645,100.853c64.356,17.078 133.381,13.97 195.735,-9.602c59.153,-22.366 111.835,-62.871 148.039,-114.813c37.65,-54.017 57.932,-117.855 58.133,-183.717c-0.065,-21.351 -1.965,-42.667 -6.31,-63.587Zm-112.998,260.294c-12.14,10.273 -29.419,-0 -29.419,-0l-253.117,-111.693l0.052,-0.051l-118.29,-252.778c-0,-0 -10.749,-18.604 1.394,-28.877c12.142,-10.275 29.42,-0 29.42,-0l253.067,111.751l118.298,252.773c-0.001,0 10.739,18.601 -1.405,28.875Z"
              style="fill:#3f3f3f;fill-rule:nonzero;"/>
        <path d="M512.002,536.129c-24.416,-0 -44.212,19.792 -44.212,44.213c-0,24.418 19.796,44.212 44.212,44.212c24.416,0 44.213,-19.794 44.213,-44.212c-0.001,-24.422 -19.797,-44.213 -44.213,-44.213Zm0,62.416c-10.047,0 -18.205,-8.151 -18.205,-18.204c0,-10.055 8.158,-18.207 18.205,-18.207c10.048,0 18.206,8.152 18.206,18.207c-0,10.053 -8.158,18.204 -18.206,18.204Z"
              style="fill:#3f3f3f;fill-rule:nonzero;"/>
        <path d="M547.156,176.216c21.282,-12.207 35.63,-35.134 35.63,-61.429c-0,-39.094 -31.693,-70.786 -70.786,-70.786c-39.094,-0 -70.787,31.692 -70.787,70.786c0,26.294 14.348,49.222 35.63,61.429c-207.573,17.823 -370.501,191.932 -370.501,404.125c-0,224.041 181.618,405.659 405.658,405.659c224.039,0 405.658,-181.618 405.658,-405.659c0,-212.193 -162.929,-386.302 -370.502,-404.125Zm-34.899,-95.942c18.545,0 33.577,15.034 33.577,33.578c0,18.544 -15.032,33.577 -33.577,33.577c-18.545,-0 -33.578,-15.033 -33.578,-33.577c0,-18.545 15.034,-33.578 33.578,-33.578Zm-20.828,840.44c-66.064,-4.262 -130.734,-27.164 -183.599,-67.298c-52.179,-39.617 -92.739,-92.847 -115.588,-154.398c-46.988,-126.571 -13.109,-273.98 85.497,-366.505c47.713,-44.772 108.063,-76.214 172.659,-87.602c67.197,-11.844 136.648,-4.163 199.175,23.383c59.351,26.149 110.791,69.502 146.635,123.573c36.973,55.773 56.585,121.588 56.788,188.467c-0.165,53.77 -12.7,107.25 -37.273,155.141c-61.08,119.039 -190.381,193.883 -324.294,185.239Z"
              style="fill:#3f3f3f;fill-rule:nonzero;"/>
    </g>
</svg>
