<?xml version="1.0" encoding="utf-8"?>
<!-- Generator: Adobe Illustrator 24.1.3, SVG Export Plug-In . SVG Version: 6.00 Build 0)  -->
<svg version="1.1" id="Layer_2" xmlns="http://www.w3.org/2000/svg" xmlns:xlink="http://www.w3.org/1999/xlink" x="0px"
     y="0px"
     viewBox="0 0 1024 1024" style="enable-background:new 0 0 1024 1024;" xml:space="preserve">
<g>
	<polygon points="4.99,1024 409.88,1024 409.88,619.11 4.99,619.45 	"/>
    <polygon points="207.33,440.29 163.67,440.33 28.57,584 28.27,584.32 207.33,584.17 207.33,584 	"/>
    <polygon points="850.56,619.11 613.44,619.31 595.88,619.32 578.33,619.34 445.67,619.45 445.67,996.54 445.67,1022.16
		445.67,1024 468.04,1024 850.56,1024 	"/>
    <polygon points="1019.01,466.71 885.68,608.5 885.68,997.26 1019.01,855.47 	"/>
    <polygon points="995.93,440 840.78,440.13 705.5,584 705.38,584.12 860.53,584 	"/>
    <polygon points="242.45,405.16 242.45,422.7 242.45,440.27 242.45,584 419.84,584 419.85,584 421.06,584 427.44,584 428.12,584
		443.94,584 445.16,584 468.04,584 469.25,584 578.33,584 595.88,584 613.44,584 647.34,584 647.34,440.3 647.34,422.73 
		647.34,405.19 647.34,179.11 242.45,179.44 	"/>
    <polygon points="682.45,422.7 682.45,440.27 682.45,557.25 792.54,440.17 809.07,422.6 815.78,415.46 815.78,405.05 815.78,26.71
		682.45,168.5 682.45,405.16 	"/>
    <polygon points="266.04,143.99 265.73,144.32 657.3,143.99 792.7,0 401.13,0.33 	"/>
</g>
</svg>
