<?xml version="1.0" encoding="UTF-8" standalone="no"?>
<!DOCTYPE svg PUBLIC "-//W3C//DTD SVG 1.1//EN" "http://www.w3.org/Graphics/SVG/1.1/DTD/svg11.dtd">
<svg width="100%" height="100%" viewBox="0 0 32 32" version="1.1" xmlns="http://www.w3.org/2000/svg"
     xmlns:xlink="http://www.w3.org/1999/xlink" xml:space="preserve" xmlns:serif="http://www.serif.com/"
     style="fill-rule:evenodd;clip-rule:evenodd;stroke-linejoin:round;stroke-miterlimit:2;">
    <g>
        <path d="M30.829,22.715l-0.863,-0.77l-3.745,-3.342c-0.145,-0.129 -0.347,-0.166 -0.528,-0.098l-7.479,2.772l-5.933,-5.291c-0.145,-0.129 -0.346,-0.166 -0.528,-0.098l-9.718,3.605l-0.699,0.258c-0.207,0.078 -0.336,0.274 -0.336,0.487l-0,8.746c-0,0.859 0.698,1.552 1.552,1.552l26.896,0c0.854,0 1.552,-0.693 1.552,-1.552l-0,-5.886c-0,-0.139 -0.057,-0.28 -0.171,-0.383Z"
              style="fill:#3f3f3f;fill-rule:nonzero;"/>
        <path d="M16.339,11.068l-0.481,0l0,-0.48c0,-0.286 -0.231,-0.518 -0.517,-0.518c-0.286,-0 -0.517,0.232 -0.517,0.518l-0,0.48l-0.48,0c-0.286,0 -0.518,0.232 -0.518,0.517c0,0.285 0.232,0.517 0.518,0.517l0.48,0l-0,0.48c-0,0.286 0.231,0.517 0.517,0.517c0.286,0 0.517,-0.231 0.517,-0.517l0,-0.48l0.481,0c0.285,0 0.517,-0.232 0.517,-0.517c-0,-0.285 -0.232,-0.517 -0.517,-0.517Z"
              style="fill:#3f3f3f;fill-rule:nonzero;"/>
        <path d="M20.544,15.427l-0.48,-0l-0,-0.48c-0,-0.286 -0.232,-0.517 -0.517,-0.517c-0.286,-0 -0.518,0.231 -0.518,0.517l0,0.48l-0.48,-0c-0.285,-0 -0.517,0.232 -0.517,0.518c0,0.285 0.232,0.517 0.517,0.517l0.48,-0l0,0.48c0,0.285 0.232,0.517 0.518,0.517c0.285,0 0.517,-0.232 0.517,-0.517l-0,-0.48l0.48,-0c0.286,-0 0.518,-0.232 0.518,-0.517c-0,-0.286 -0.232,-0.518 -0.518,-0.518Z"
              style="fill:#3f3f3f;fill-rule:nonzero;"/>
        <path d="M25.975,12.572l-0.481,0l0,-0.48c0,-0.286 -0.231,-0.518 -0.517,-0.518c-0.286,-0 -0.517,0.232 -0.517,0.518l-0,0.48l-0.48,0c-0.286,0 -0.518,0.232 -0.518,0.517c0,0.286 0.232,0.517 0.518,0.517l0.48,0l-0,0.48c-0,0.287 0.231,0.519 0.517,0.519c0.286,-0 0.517,-0.232 0.517,-0.519l0,-0.48l0.481,0c0.285,0 0.517,-0.231 0.517,-0.517c-0,-0.285 -0.232,-0.517 -0.517,-0.517Z"
              style="fill:#3f3f3f;fill-rule:nonzero;"/>
        <path d="M21.437,3.897l-0.48,-0l-0,-0.481c-0,-0.285 -0.232,-0.517 -0.518,-0.517c-0.285,0 -0.517,0.232 -0.517,0.517l0,0.481l-0.48,-0c-0.286,-0 -0.517,0.231 -0.517,0.517c-0,0.286 0.231,0.517 0.517,0.517l0.48,0l0,0.481c0,0.285 0.232,0.517 0.517,0.517c0.286,-0 0.518,-0.232 0.518,-0.517l-0,-0.481l0.48,0c0.286,0 0.517,-0.231 0.517,-0.517c0,-0.286 -0.231,-0.517 -0.517,-0.517Z"
              style="fill:#3f3f3f;fill-rule:nonzero;"/>
        <path d="M6.043,10.67c-1.273,0 -2.309,1.037 -2.309,2.309c-0,1.274 1.036,2.31 2.309,2.31c1.273,-0 2.309,-1.036 2.309,-2.31c0,-1.272 -1.036,-2.309 -2.309,-2.309Z"
              style="fill:#3f3f3f;fill-rule:nonzero;"/>
        <path d="M22.091,11.022c-0.002,-0.002 -0.004,-0.003 -0.006,-0.005l-1.57,-1.569c-0.202,-0.202 -0.529,-0.202 -0.731,0c-0,0 -0,0.001 -0.001,0.001c0,0 -0,0 -0,0.001l-0.77,0.769c-0.305,0.313 -0.473,0.722 -0.473,1.153c-0,0.435 0.169,0.844 0.477,1.152c0.318,0.318 0.735,0.476 1.152,0.476c0.417,0 0.834,-0.158 1.152,-0.476l0.77,-0.771c0.203,-0.201 0.203,-0.529 0,-0.731Z"
              style="fill:#3f3f3f;fill-rule:nonzero;"/>
        <path d="M30.062,1.479c-0.636,-0.637 -1.672,-0.637 -2.309,-0l-7.969,7.969l-0.001,0.002c-0.202,0.202 -0.202,0.53 -0,0.731c0.002,0.002 0.006,0.004 0.009,0.006l1.566,1.567c0.101,0.101 0.234,0.152 0.366,0.152c0.067,0 0.133,-0.013 0.196,-0.039c0.062,-0.026 0.121,-0.063 0.171,-0.114l7.972,-7.97c0.634,-0.636 0.634,-1.669 -0.001,-2.304Z"
              style="fill:#3f3f3f;fill-rule:nonzero;"/>
        <path d="M29.448,29.504l-26.896,-0c-0.285,-0 -0.517,-0.232 -0.517,-0.517l-0,-8.391l9.788,-3.63l5.297,4.719l-7.755,2.876c-0.636,0.225 -0.26,1.214 0.36,0.97l16.037,-5.948l4.204,3.75l-0,5.654c-0,0.285 -0.233,0.517 -0.518,0.517Zm-26.896,-20.84l18.016,0l-1.553,1.554c-0.636,0.635 -0.636,1.67 -0,2.305c0.318,0.318 0.735,0.477 1.153,0.477c0.417,0 0.835,-0.159 1.153,-0.477l3.859,-3.859l4.268,0c0.285,0 0.518,0.232 0.518,0.517l-0,12.766l-3.747,-3.344c-0.143,-0.128 -0.345,-0.166 -0.525,-0.099l-7.477,2.773l-5.939,-5.291c-0.142,-0.127 -0.344,-0.166 -0.523,-0.099l-9.72,3.606l-0,-10.312c-0,-0.285 0.232,-0.517 0.517,-0.517Zm17.194,2.285l0.404,-0.403l0.843,0.842l-0.404,0.403c-0.233,0.233 -0.611,0.233 -0.843,0.001c-0.232,-0.232 -0.232,-0.61 0,-0.843Zm8.741,-8.74c0.116,-0.117 0.269,-0.175 0.421,-0.175c0.153,0 0.306,0.058 0.422,0.174l-0,0.001c0.112,0.112 0.175,0.262 0.175,0.421c-0,0.159 -0.063,0.309 -0.175,0.421l-7.606,7.606l-0.843,-0.843l7.606,-7.605Zm0.961,5.421l-3.233,-0l3.846,-3.847c0.308,-0.308 0.478,-0.718 0.478,-1.153c0,-0.436 -0.17,-0.845 -0.478,-1.153c-0.636,-0.637 -1.67,-0.635 -2.306,-0l-6.153,6.153l-19.05,-0c-0.856,-0 -1.552,0.696 -1.552,1.551l0,19.806c0,0.855 0.696,1.552 1.552,1.552l26.896,-0c0.856,-0 1.552,-0.697 1.552,-1.552l0,-19.806c0,-0.855 -0.696,-1.551 -1.552,-1.551Z"
              style="fill:#3f3f3f;fill-rule:nonzero;"/>
        <path d="M14.344,12.102l0.48,0l-0,0.48c-0,0.286 0.231,0.517 0.517,0.517c0.286,0 0.517,-0.231 0.517,-0.517l0,-0.48l0.481,0c0.285,0 0.517,-0.232 0.517,-0.517c-0,-0.285 -0.232,-0.517 -0.517,-0.517l-0.481,0l0,-0.48c0,-0.286 -0.231,-0.518 -0.517,-0.518c-0.286,-0 -0.517,0.232 -0.517,0.518l-0,0.48l-0.48,0c-0.286,0 -0.518,0.232 -0.518,0.517c0,0.285 0.232,0.517 0.518,0.517Z"
              style="fill:#3f3f3f;fill-rule:nonzero;"/>
        <path d="M18.549,16.462l0.48,-0l0,0.48c0,0.285 0.232,0.517 0.518,0.517c0.285,0 0.517,-0.232 0.517,-0.517l-0,-0.48l0.48,-0c0.286,-0 0.518,-0.232 0.518,-0.517c-0,-0.286 -0.232,-0.518 -0.518,-0.518l-0.48,-0l-0,-0.48c-0,-0.286 -0.232,-0.517 -0.517,-0.517c-0.286,-0 -0.518,0.231 -0.518,0.517l0,0.48l-0.48,-0c-0.285,-0 -0.517,0.232 -0.517,0.518c0,0.285 0.232,0.517 0.517,0.517Z"
              style="fill:#3f3f3f;fill-rule:nonzero;"/>
        <path d="M23.98,13.606l0.48,0l-0,0.48c-0,0.287 0.231,0.519 0.517,0.519c0.286,-0 0.517,-0.232 0.517,-0.519l0,-0.48l0.481,0c0.285,0 0.517,-0.231 0.517,-0.517c-0,-0.285 -0.232,-0.517 -0.517,-0.517l-0.481,0l0,-0.48c0,-0.286 -0.231,-0.518 -0.517,-0.518c-0.286,-0 -0.517,0.232 -0.517,0.518l-0,0.48l-0.48,0c-0.286,0 -0.518,0.232 -0.518,0.517c0,0.286 0.232,0.517 0.518,0.517Z"
              style="fill:#3f3f3f;fill-rule:nonzero;"/>
        <path d="M19.442,4.931l0.48,0l0,0.481c0,0.285 0.232,0.517 0.517,0.517c0.286,-0 0.518,-0.232 0.518,-0.517l-0,-0.481l0.48,0c0.286,0 0.517,-0.231 0.517,-0.517c0,-0.286 -0.231,-0.517 -0.517,-0.517l-0.48,-0l-0,-0.481c-0,-0.285 -0.232,-0.517 -0.518,-0.517c-0.285,0 -0.517,0.232 -0.517,0.517l0,0.481l-0.48,-0c-0.286,-0 -0.517,0.231 -0.517,0.517c-0,0.286 0.231,0.517 0.517,0.517Z"
              style="fill:#3f3f3f;fill-rule:nonzero;"/>
        <path d="M6.043,11.704c0.703,0 1.275,0.573 1.275,1.275c-0,0.703 -0.572,1.275 -1.275,1.275c-0.703,-0 -1.275,-0.572 -1.275,-1.275c0,-0.702 0.572,-1.275 1.275,-1.275Zm0,3.585c1.273,-0 2.309,-1.036 2.309,-2.31c0,-1.272 -1.036,-2.309 -2.309,-2.309c-1.273,0 -2.309,1.037 -2.309,2.309c-0,1.274 1.036,2.31 2.309,2.31Z"
              style="fill:#3f3f3f;fill-rule:nonzero;"/>
    </g>
</svg>
