<?xml version="1.0" encoding="utf-8"?>
<!-- Generator: Adobe Illustrator 24.1.3, SVG Export Plug-In . SVG Version: 6.00 Build 0)  -->
<svg version="1.1" id="Layer_2" xmlns="http://www.w3.org/2000/svg" xmlns:xlink="http://www.w3.org/1999/xlink" x="0px"
     y="0px"
     viewBox="0 0 1024 1024" style="enable-background:new 0 0 1024 1024;" xml:space="preserve">
<g>
	<path d="M849.52,0H174.49C118.89,0,73.66,45.23,73.66,100.82v822.36c0,55.59,45.23,100.82,100.82,100.82h675.03
		c55.59,0,100.82-45.23,100.82-100.82V100.82C950.34,45.23,905.11,0,849.52,0z M322.83,830.49c-42.45,0-76.85-34.41-76.85-76.85
		c0-42.45,34.41-76.85,76.85-76.85s76.85,34.41,76.85,76.85C399.69,796.08,365.28,830.49,322.83,830.49z M322.83,522.14
		c-42.45,0-76.85-34.41-76.85-76.85c0-42.45,34.41-76.85,76.85-76.85s76.85,34.41,76.85,76.85
		C399.69,487.73,365.28,522.14,322.83,522.14z M704.09,890.51h-222.8v-59.09h222.8V890.51z M804.21,735.87H481.29v-59.09h322.93
		V735.87z M481.29,581.23v-59.09h203.09v59.09H481.29z M804.21,426.59H481.29V367.5h322.93V426.59z M804.21,248.72H219.79v-59.09
		h584.42V248.72z"/>
</g>
</svg>
