<?xml version="1.0" encoding="utf-8"?>
<!-- Generator: Adobe Illustrator 24.1.3, SVG Export Plug-In . SVG Version: 6.00 Build 0)  -->
<svg version="1.1" id="Layer_2" xmlns="http://www.w3.org/2000/svg" xmlns:xlink="http://www.w3.org/1999/xlink" x="0px"
     y="0px"
     viewBox="0 0 1024 1024" style="enable-background:new 0 0 1024 1024;" xml:space="preserve">
<g>
	<path d="M763.94,326.95c0-52.32-42.41-94.73-94.73-94.73h-78.7l-72.31,75.91l-72.31-75.91h-67.02c-52.32,0-94.73,42.41-94.73,94.73
		v52.36h94.73v264.51v4.46v352.31c0,12.92,10.48,23.4,23.4,23.4h77.74c12.92,0,23.4-10.48,23.4-23.4V648.29h41.26v352.31
		c0,12.92,10.48,23.4,23.4,23.4h77.74c12.92,0,23.4-10.48,23.4-23.4V648.29v-4.46V379.31h94.73V326.95z"/>
    <path d="M763.94,399.9H692.6v237.97c0,19.7,15.97,35.67,35.67,35.67c19.7,0,35.67-15.97,35.67-35.67V399.9z"/>
    <path d="M355.48,637.87V399.9h-71.34v237.97c0,19.7,15.97,35.67,35.67,35.67C339.51,673.54,355.48,657.57,355.48,637.87z"/>
    <path d="M517.69,228.03c19.77,0,38.26-5.64,54.23-15.33c32.47-19.71,54.38-56.48,54.38-98.69C626.3,51.05,577.67,0,517.69,0
		S409.09,51.05,409.09,114.02c0,42.49,22.18,79.47,55.01,99.09C479.92,222.56,498.18,228.03,517.69,228.03z"/>
</g>
</svg>
