<?xml version="1.0" encoding="utf-8"?>
<!-- Generator: Adobe Illustrator 16.0.0, SVG Export Plug-In . SVG Version: 6.00 Build 0)  -->
<!DOCTYPE svg PUBLIC "-//W3C//DTD SVG 1.1//EN" "http://www.w3.org/Graphics/SVG/1.1/DTD/svg11.dtd">
<svg version="1.1" xmlns="http://www.w3.org/2000/svg" xmlns:xlink="http://www.w3.org/1999/xlink" x="0px" y="0px"
     width="1024px"
     height="1024px" viewBox="0 0 1024 1024" enable-background="new 0 0 1024 1024" xml:space="preserve">
<g id="Layer_1">
	<rect fill="#FFFFFF" width="1024" height="1024"/>
</g>
    <g id="Layer_2">
</g>
    <g id="Layer_3">
	<g>
		<path d="M761.193,758.958v-65.457h-9.218V325.312h9.218v-65.446l-65.456-0.021v17.388H331.644v-17.367l-65.467-0.021v65.466h9.208
			v368.189h-9.208v65.457h65.467v-5.124h364.094v5.124H761.193z M331.644,723.163v-29.662h-25.578V325.312h25.578v-17.388h364.094
			v17.388h25.567v368.189h-25.567v29.662H331.644z"/>
        <polygon
                points="858.645,854.361 743.612,854.361 743.612,885.032 889.315,885.032 889.315,727.646 858.645,727.646 		"/>
        <polygon
                points="168.736,164.452 302.674,164.452 302.674,133.782 138.065,133.782 138.065,286.707 168.736,286.707 		"/>
        <polygon
                points="168.736,727.646 138.065,727.646 138.065,885.032 302.674,885.032 302.674,854.361 168.736,854.361 		"/>
        <polygon
                points="743.612,133.782 743.612,164.452 858.645,164.452 858.645,286.707 889.315,286.707 889.315,133.782 		"/>
	</g>
</g>
</svg>
