<?xml version="1.0" encoding="UTF-8" standalone="no"?>
<!DOCTYPE svg PUBLIC "-//W3C//DTD SVG 1.1//EN" "http://www.w3.org/Graphics/SVG/1.1/DTD/svg11.dtd">
<svg width="100%" height="100%" viewBox="0 0 24 24" version="1.1" xmlns="http://www.w3.org/2000/svg"
     xmlns:xlink="http://www.w3.org/1999/xlink" xml:space="preserve" xmlns:serif="http://www.serif.com/"
     style="fill-rule:evenodd;clip-rule:evenodd;stroke-linejoin:round;stroke-miterlimit:2;">
    <g transform="matrix(0.943188,0,0,0.941229,0.951097,0.712311)">
        <path d="M18.929,20.5L13.415,14.987L14.996,13.406L20.51,18.919L18.929,20.5ZM5.081,20.5L3.5,18.919L10.429,11.99L8.094,9.665L7.471,10.288L6.36,9.167L6.36,11.092L5.737,11.715L2.914,8.892L3.537,8.269L5.462,8.269L4.356,7.173L7.213,4.315C7.495,4.033 7.801,3.827 8.13,3.696C8.459,3.565 8.801,3.5 9.156,3.5C9.511,3.5 9.853,3.565 10.182,3.696C10.511,3.827 10.816,4.033 11.098,4.315L9.125,6.288L10.298,7.462L9.675,8.085L12.01,10.41L14.413,8.006C14.302,7.803 14.221,7.594 14.169,7.378C14.118,7.162 14.092,6.935 14.092,6.696C14.092,5.796 14.403,5.036 15.023,4.415C15.644,3.795 16.404,3.485 17.304,3.485C17.515,3.485 17.718,3.503 17.911,3.54C18.104,3.578 18.297,3.64 18.492,3.727L16.219,6L18,7.781L20.273,5.508C20.37,5.703 20.435,5.896 20.467,6.089C20.499,6.282 20.515,6.485 20.515,6.696C20.515,7.596 20.205,8.356 19.585,8.977C18.964,9.597 18.204,9.908 17.304,9.908C17.065,9.908 16.838,9.885 16.622,9.838C16.406,9.792 16.197,9.708 15.994,9.587L5.081,20.5Z"
              style="fill:white;fill-rule:nonzero;"/>
    </g>
</svg>
