<?xml version="1.0" encoding="UTF-8" standalone="no"?>
<!DOCTYPE svg PUBLIC "-//W3C//DTD SVG 1.1//EN" "http://www.w3.org/Graphics/SVG/1.1/DTD/svg11.dtd">
<svg width="100%" height="100%" viewBox="0 0 24 24" version="1.1" xmlns="http://www.w3.org/2000/svg"
     xmlns:xlink="http://www.w3.org/1999/xlink" xml:space="preserve" xmlns:serif="http://www.serif.com/"
     style="fill-rule:evenodd;clip-rule:evenodd;stroke-linejoin:round;stroke-miterlimit:2;">
    <g transform="matrix(1.5,0,0,1.6,0,-0.8)">
        <path d="M0,13C0,13.553 0.447,14 1,14L2.709,14C3.094,14.884 3.975,15.5 5,15.5C6.025,15.5 6.906,14.884 7.291,14L15,14C15.553,14 16,13.553 16,13C16,12.447 15.553,12 15,12L7.291,12C6.906,11.116 6.025,10.5 5,10.5C3.975,10.5 3.094,11.116 2.709,12L1,12C0.447,12 0,12.447 0,13ZM4,13C4,12.451 4.451,12 5,12C5.549,12 6,12.451 6,13C6,13.549 5.549,14 5,14C4.451,14 4,13.549 4,13ZM10,8C10,7.451 10.451,7 11,7C11.549,7 12,7.451 12,8C12,8.549 11.549,9 11,9C10.451,9 10,8.549 10,8ZM11,5.5C9.975,5.5 9.094,6.116 8.709,7L1,7C0.447,7 0,7.447 0,8C0,8.553 0.447,9 1,9L8.709,9C9.094,9.884 9.975,10.5 11,10.5C12.025,10.5 12.906,9.884 13.291,9L15,9C15.553,9 16,8.553 16,8C16,7.447 15.553,7 15,7L13.291,7C12.906,6.116 12.025,5.5 11,5.5ZM6,4C5.451,4 5,3.549 5,3C5,2.451 5.451,2 6,2C6.549,2 7,2.451 7,3C7,3.549 6.549,4 6,4ZM8.291,2C7.906,1.116 7.025,0.5 6,0.5C4.975,0.5 4.094,1.116 3.709,2L1,2C0.447,2 0,2.447 0,3C0,3.553 0.447,4 1,4L3.709,4C4.094,4.884 4.975,5.5 6,5.5C7.025,5.5 7.906,4.884 8.291,4L15,4C15.553,4 16,3.553 16,3C16,2.447 15.553,2 15,2L8.291,2Z"
              style="fill:white;fill-rule:nonzero;"/>
    </g>
</svg>
