<?xml version="1.0" encoding="UTF-8" standalone="no"?>
<!DOCTYPE svg PUBLIC "-//W3C//DTD SVG 1.1//EN" "http://www.w3.org/Graphics/SVG/1.1/DTD/svg11.dtd">
<svg width="100%" height="100%" viewBox="0 0 24 24" version="1.1" xmlns="http://www.w3.org/2000/svg" xmlns:xlink="http://www.w3.org/1999/xlink" xml:space="preserve" xmlns:serif="http://www.serif.com/" style="fill-rule:evenodd;clip-rule:evenodd;">
    <g id="Ebene-1" serif:id="Ebene 1" transform="matrix(1.1,0,0,1.1,-1.2,-1132.4)">
        <path id="rect826" d="M15.5,1031.86L20.5,1036.86L20.5,1043.86L8.5,1048.86L3.5,1044.86L3.5,1035.86L15.5,1031.86Z" style="fill:none;fill-rule:nonzero;stroke:rgb(127,127,127);stroke-width:0.91px;"/>
        <g id="path4927-9-1-3" transform="matrix(1.32727,0,0,1.32727,-1.14545,-339.009)">
            <circle cx="3.5" cy="1035.86" r="1.5" style="fill:rgb(0,109,208);stroke:rgb(255,127,0);stroke-width:0.5px;stroke-linejoin:round;stroke-dasharray:0,5.5;"/>
        </g>
        <g id="path4927-9-1-3-3" transform="matrix(1.32727,0,0,1.32727,-5.07273,-337.7)">
            <circle cx="15.5" cy="1031.86" r="1.5" style="fill:rgb(0,109,208);stroke:rgb(255,127,0);stroke-width:0.5px;stroke-linejoin:round;stroke-dasharray:0,5.5;"/>
        </g>
        <g id="path4927-9-1-3-3-6" transform="matrix(1.32727,0,0,1.32727,-6.70909,-339.336)">
            <circle cx="20.5" cy="1036.86" r="1.5" style="fill:rgb(0,109,208);stroke:rgb(255,127,0);stroke-width:0.5px;stroke-linejoin:round;stroke-dasharray:0,5.5;"/>
        </g>
        <g id="path4927-9-1-3-3-6-7" transform="matrix(1.32727,0,0,1.32727,-6.70909,-341.627)">
            <circle cx="20.5" cy="1043.86" r="1.5" style="fill:rgb(0,109,208);stroke:rgb(255,127,0);stroke-width:0.5px;stroke-linejoin:round;stroke-dasharray:0,5.5;"/>
        </g>
        <g id="path4927-9-1-3-3-6-7-5" transform="matrix(1.32727,0,0,1.32727,-2.78182,-343.263)">
            <circle cx="8.5" cy="1048.86" r="1.5" style="fill:rgb(0,109,208);stroke:rgb(255,127,0);stroke-width:0.5px;stroke-linejoin:round;stroke-dasharray:0,5.5;"/>
        </g>
        <g id="path4927-9-1-3-3-6-7-5-3-5" transform="matrix(1.32727,0,0,1.32727,-1.14545,-341.954)">
            <circle cx="3.5" cy="1044.86" r="1.5" style="fill:rgb(0,109,208);stroke:rgb(255,127,0);stroke-width:0.5px;stroke-linejoin:round;stroke-dasharray:0,5.5;"/>
        </g>
    </g>
</svg>
