<?xml version="1.0" encoding="UTF-8" standalone="no"?>
<!DOCTYPE svg PUBLIC "-//W3C//DTD SVG 1.1//EN" "http://www.w3.org/Graphics/SVG/1.1/DTD/svg11.dtd">
<svg width="100%" height="100%" viewBox="0 0 24 24" version="1.1" xmlns="http://www.w3.org/2000/svg"
     xmlns:xlink="http://www.w3.org/1999/xlink" xml:space="preserve" xmlns:serif="http://www.serif.com/"
     style="fill-rule:evenodd;clip-rule:evenodd;stroke-linejoin:round;stroke-miterlimit:2;">
    <g transform="matrix(0.59452,-0.0941628,0.104363,0.658924,-0.22557,4.93332)">
        <path d="M11.981,21.5C10.685,21.5 9.46,21.25 8.308,20.751C7.155,20.252 6.149,19.572 5.288,18.712C4.428,17.851 3.748,16.843 3.249,15.687C2.75,14.532 2.5,13.303 2.5,12C2.5,10.681 2.756,9.443 3.269,8.288C3.782,7.132 4.479,6.126 5.359,5.271C6.239,4.416 7.268,3.74 8.447,3.244C9.626,2.748 10.883,2.5 12.219,2.5C13.469,2.5 14.654,2.713 15.773,3.139C16.892,3.566 17.875,4.156 18.722,4.91C19.569,5.663 20.244,6.559 20.746,7.597C21.249,8.635 21.5,9.76 21.5,10.973C21.5,12.704 20.986,14.058 19.957,15.035C18.928,16.012 17.609,16.5 16,16.5L14.188,16.5C13.904,16.5 13.676,16.593 13.506,16.779C13.335,16.965 13.25,17.185 13.25,17.438C13.25,17.747 13.375,18.069 13.625,18.402C13.875,18.735 14,19.118 14,19.55C14,20.21 13.817,20.7 13.452,21.02C13.087,21.34 12.596,21.5 11.981,21.5ZM6.5,12.75C6.856,12.75 7.154,12.631 7.392,12.392C7.631,12.154 7.75,11.856 7.75,11.5C7.75,11.144 7.631,10.846 7.392,10.608C7.154,10.369 6.856,10.25 6.5,10.25C6.144,10.25 5.846,10.369 5.608,10.608C5.369,10.846 5.25,11.144 5.25,11.5C5.25,11.856 5.369,12.154 5.608,12.392C5.846,12.631 6.144,12.75 6.5,12.75ZM9.5,8.75C9.856,8.75 10.154,8.631 10.392,8.392C10.631,8.154 10.75,7.856 10.75,7.5C10.75,7.144 10.631,6.846 10.392,6.608C10.154,6.369 9.856,6.25 9.5,6.25C9.144,6.25 8.846,6.369 8.608,6.608C8.369,6.846 8.25,7.144 8.25,7.5C8.25,7.856 8.369,8.154 8.608,8.392C8.846,8.631 9.144,8.75 9.5,8.75ZM14.5,8.75C14.856,8.75 15.154,8.631 15.392,8.392C15.631,8.154 15.75,7.856 15.75,7.5C15.75,7.144 15.631,6.846 15.392,6.608C15.154,6.369 14.856,6.25 14.5,6.25C14.144,6.25 13.846,6.369 13.608,6.608C13.369,6.846 13.25,7.144 13.25,7.5C13.25,7.856 13.369,8.154 13.608,8.392C13.846,8.631 14.144,8.75 14.5,8.75ZM17.5,12.75C17.856,12.75 18.154,12.631 18.392,12.392C18.631,12.154 18.75,11.856 18.75,11.5C18.75,11.144 18.631,10.846 18.392,10.608C18.154,10.369 17.856,10.25 17.5,10.25C17.144,10.25 16.846,10.369 16.608,10.608C16.369,10.846 16.25,11.144 16.25,11.5C16.25,11.856 16.369,12.154 16.608,12.392C16.846,12.631 17.144,12.75 17.5,12.75ZM11.981,20C12.144,20 12.271,19.96 12.363,19.88C12.454,19.8 12.5,19.69 12.5,19.55C12.5,19.317 12.375,19.054 12.125,18.763C11.875,18.472 11.75,18.017 11.75,17.396C11.75,16.683 11.992,16.106 12.475,15.663C12.958,15.221 13.55,15 14.25,15L16,15C17.177,15 18.138,14.655 18.883,13.965C19.628,13.276 20,12.278 20,10.973C20,8.95 19.224,7.282 17.673,5.969C16.122,4.656 14.304,4 12.219,4C9.933,4 7.992,4.775 6.395,6.325C4.798,7.875 4,9.767 4,12C4,14.217 4.779,16.104 6.338,17.663C7.896,19.221 9.777,20 11.981,20Z"
              style="fill:white;fill-rule:nonzero;"/>
    </g>
    <g transform="matrix(0.39487,0,0,0.611111,12.7784,4.05927)">
        <path d="M10.981,21.5C10.565,21.5 10.212,21.354 9.919,21.062C9.627,20.769 9.481,20.415 9.481,20L9.481,15.394L6.317,15.394C5.812,15.394 5.383,15.219 5.03,14.869C4.677,14.519 4.5,14.095 4.5,13.596L4.5,6.798C4.5,5.89 4.824,5.114 5.473,4.468C6.122,3.823 6.903,3.5 7.817,3.5L19.5,3.5L19.5,13.596C19.5,14.095 19.322,14.519 18.965,14.869C18.609,15.219 18.178,15.394 17.673,15.394L14.51,15.394L14.51,20C14.51,20.415 14.363,20.769 14.071,21.062C13.779,21.354 13.425,21.5 13.01,21.5L10.981,21.5ZM6,10.231L18,10.231L18,5L16.683,5L16.683,8.856L15.183,8.856L15.183,5L13.76,5L13.76,6.981L12.26,6.981L12.26,5L7.817,5C7.312,5 6.883,5.173 6.53,5.52C6.177,5.867 6,6.293 6,6.798L6,10.231ZM6.317,13.894L17.673,13.894C17.763,13.894 17.84,13.865 17.904,13.808C17.968,13.75 18,13.679 18,13.596L18,11.731L6,11.731L6,13.596C6,13.679 6.03,13.75 6.091,13.808C6.152,13.865 6.228,13.894 6.317,13.894ZM6,13.894L6,11.731L6,13.894Z"
              style="fill:white;fill-rule:nonzero;"/>
    </g>
</svg>
