<?xml version="1.0" encoding="UTF-8" standalone="no"?>
<!DOCTYPE svg PUBLIC "-//W3C//DTD SVG 1.1//EN" "http://www.w3.org/Graphics/SVG/1.1/DTD/svg11.dtd">
<svg width="100%" height="100%" viewBox="0 0 24 24" version="1.1" xmlns="http://www.w3.org/2000/svg"
     xmlns:xlink="http://www.w3.org/1999/xlink" xml:space="preserve" xmlns:serif="http://www.serif.com/"
     style="fill-rule:evenodd;clip-rule:evenodd;stroke-linejoin:round;stroke-miterlimit:2;">
    <g transform="matrix(1.00009,0,0,1.00009,3,3.99931)">
        <path d="M12.922,7.422C12.041,7.572 11.103,7.309 10.422,6.628L9.231,5.438C8.763,4.969 8.5,4.338 8.5,3.675L8.5,3.297L6.009,1.938C5.844,1.847 5.741,1.669 5.75,1.478C5.759,1.287 5.872,1.119 6.047,1.041L7.522,0.384C8.097,0.131 8.719,0 9.35,0L9.916,0C11.063,0 12.166,0.438 13,1.222L14.394,2.534C15.15,3.247 15.431,4.275 15.225,5.222L15.719,5.719L15.969,5.469C16.262,5.175 16.738,5.175 17.028,5.469L17.778,6.219C18.072,6.513 18.072,6.988 17.778,7.278L15.028,10.028C14.734,10.322 14.259,10.322 13.969,10.028L13.219,9.278C12.925,8.984 12.925,8.509 13.219,8.219L13.469,7.969L12.922,7.422ZM0.856,11.784L8.153,5.706C8.263,5.859 8.388,6.006 8.522,6.144L9.713,7.334C9.9,7.522 10.1,7.684 10.313,7.825L4.216,15.144C3.763,15.688 3.091,16 2.384,16C1.066,16 0,14.931 0,13.616C0,12.909 0.316,12.237 0.856,11.784Z"
              style="fill:rgb(94,147,241);fill-rule:nonzero;"/>
    </g>
</svg>
