<?xml version="1.0" encoding="UTF-8" standalone="no"?>
<!DOCTYPE svg PUBLIC "-//W3C//DTD SVG 1.1//EN" "http://www.w3.org/Graphics/SVG/1.1/DTD/svg11.dtd">
<svg width="100%" height="100%" viewBox="0 0 24 24" version="1.1" xmlns="http://www.w3.org/2000/svg" xmlns:xlink="http://www.w3.org/1999/xlink" xml:space="preserve" xmlns:serif="http://www.serif.com/" style="fill-rule:evenodd;clip-rule:evenodd;stroke-linejoin:round;stroke-miterlimit:2;">
    <g transform="matrix(1.14286,0,0,1.22238,-1.71429,-3.22517)">
        <path d="M4.616,19C4.155,19 3.771,18.846 3.463,18.538C3.154,18.229 3,17.845 3,17.385L3,6.616C3,6.155 3.154,5.771 3.463,5.462C3.771,5.154 4.155,5 4.616,5L19.385,5C19.845,5 20.229,5.154 20.538,5.462C20.846,5.771 21,6.155 21,6.616L21,17.385C21,17.845 20.846,18.229 20.538,18.538C20.229,18.846 19.845,19 19.385,19L4.616,19ZM4.616,18L19.385,18C19.539,18 19.68,17.936 19.808,17.808C19.936,17.68 20,17.539 20,17.385L20,8L4,8L4,17.385C4,17.539 4.064,17.68 4.192,17.808C4.32,17.936 4.462,18 4.616,18ZM7.5,16.288L6.811,15.6L9.387,13L6.787,10.4L7.5,9.712L10.789,13L7.5,16.288ZM12.5,16.5L12.5,15.5L17.5,15.5L17.5,16.5L12.5,16.5Z" style="fill:rgb(187,187,187);fill-rule:nonzero;"/>
    </g>
</svg>
