<?xml version="1.0" encoding="UTF-8" standalone="no"?>
<!DOCTYPE svg PUBLIC "-//W3C//DTD SVG 1.1//EN" "http://www.w3.org/Graphics/SVG/1.1/DTD/svg11.dtd">
<svg width="100%" height="100%" viewBox="0 0 24 24" version="1.1" xmlns="http://www.w3.org/2000/svg"
     xmlns:xlink="http://www.w3.org/1999/xlink" xml:space="preserve" xmlns:serif="http://www.serif.com/"
     style="fill-rule:evenodd;clip-rule:evenodd;stroke-linejoin:round;stroke-miterlimit:2;">
    <g transform="matrix(0.0268,0,0,0.0268,1.28,1.28)">
        <path d="M700,250L550,250L550,100C550,72.571 527.429,50 500,50L100,50C72.571,50 50,72.571 50,100L50,500C50,527.429 72.571,550 100,550L250,550L250,700C250,727.429 272.571,750 300,750L700,750C727.429,750 750,727.429 750,700L750,300C750,272.571 727.429,250 700,250Z"
              style="fill:rgb(187,187,187);fill-rule:nonzero;"/>
    </g>
</svg>
