<?xml version="1.0" encoding="UTF-8" standalone="no"?>
<!DOCTYPE svg PUBLIC "-//W3C//DTD SVG 1.1//EN" "http://www.w3.org/Graphics/SVG/1.1/DTD/svg11.dtd">
<svg width="100%" height="100%" viewBox="0 0 24 24" version="1.1" xmlns="http://www.w3.org/2000/svg" xmlns:xlink="http://www.w3.org/1999/xlink" xml:space="preserve" xmlns:serif="http://www.serif.com/" style="fill-rule:evenodd;clip-rule:evenodd;stroke-linejoin:round;stroke-miterlimit:2;">
    <path d="M7.616,20C7.155,20 6.771,19.846 6.463,19.538C6.154,19.229 6,18.845 6,18.385L6,6L5,6L5,5L9,5L9,4.231L15,4.231L15,5L19,5L19,6L18,6L18,18.385C18,18.845 17.846,19.229 17.538,19.538C17.229,19.846 16.845,20 16.385,20L7.616,20ZM9.808,17L10.808,17L10.808,8L9.808,8L9.808,17ZM13.192,17L14.192,17L14.192,8L13.192,8L13.192,17Z" style="fill:rgb(170,170,170);fill-rule:nonzero;"/>
</svg>
