<?xml version="1.0" encoding="UTF-8" standalone="no"?>
<!DOCTYPE svg PUBLIC "-//W3C//DTD SVG 1.1//EN" "http://www.w3.org/Graphics/SVG/1.1/DTD/svg11.dtd">
<svg width="100%" height="100%" viewBox="0 0 24 24" version="1.1" xmlns="http://www.w3.org/2000/svg"
     xmlns:xlink="http://www.w3.org/1999/xlink" xml:space="preserve" xmlns:serif="http://www.serif.com/"
     style="fill-rule:evenodd;clip-rule:evenodd;stroke-linejoin:round;stroke-miterlimit:2;">
    <path d="M7,21L7,17.096C6.388,16.838 5.837,16.501 5.345,16.084C4.854,15.666 4.434,15.19 4.086,14.654C3.737,14.118 3.47,13.54 3.282,12.921C3.094,12.302 3,11.662 3,11C3,8.649 3.84,6.728 5.52,5.237C7.199,3.746 9.359,3 11.998,3C14.638,3 16.798,3.746 18.479,5.237C20.16,6.728 21,8.649 21,11C21,11.662 20.906,12.302 20.718,12.921C20.53,13.54 20.263,14.118 19.914,14.654C19.566,15.19 19.146,15.666 18.655,16.084C18.163,16.501 17.612,16.84 17,17.1L17,21L7,21ZM8,20L9.423,20L9.423,18.462L10.962,18.462L10.962,20L13.038,20L13.038,18.462L14.577,18.462L14.577,20L16,20L16,16.45C16.608,16.262 17.157,15.989 17.649,15.633C18.141,15.276 18.562,14.859 18.912,14.382C19.262,13.904 19.53,13.377 19.718,12.801C19.906,12.225 20,11.624 20,11C20,8.917 19.263,7.229 17.788,5.938C16.313,4.646 14.383,4 12,4C9.617,4 7.688,4.646 6.213,5.938C4.738,7.229 4,8.917 4,11C4,11.624 4.094,12.225 4.282,12.801C4.47,13.377 4.738,13.904 5.088,14.382C5.438,14.859 5.86,15.276 6.354,15.633C6.847,15.989 7.396,16.262 8,16.45L8,20ZM10.692,15L13.308,15L12,12.385L10.692,15ZM8.503,12.615C8.949,12.615 9.329,12.457 9.643,12.14C9.958,11.823 10.115,11.442 10.115,10.997C10.115,10.551 9.957,10.171 9.64,9.857C9.323,9.542 8.942,9.385 8.497,9.385C8.051,9.385 7.671,9.543 7.357,9.86C7.042,10.177 6.885,10.558 6.885,11.003C6.885,11.449 7.043,11.829 7.36,12.143C7.677,12.458 8.058,12.615 8.503,12.615ZM15.503,12.615C15.949,12.615 16.329,12.457 16.643,12.14C16.958,11.823 17.115,11.442 17.115,10.997C17.115,10.551 16.957,10.171 16.64,9.857C16.323,9.542 15.942,9.385 15.497,9.385C15.051,9.385 14.671,9.543 14.357,9.86C14.042,10.177 13.885,10.558 13.885,11.003C13.885,11.449 14.043,11.829 14.36,12.143C14.677,12.458 15.058,12.615 15.503,12.615Z"
          style="fill:rgb(156,11,11);fill-rule:nonzero;"/>
</svg>
