<?xml version="1.0" encoding="UTF-8" standalone="no"?>
<!DOCTYPE svg PUBLIC "-//W3C//DTD SVG 1.1//EN" "http://www.w3.org/Graphics/SVG/1.1/DTD/svg11.dtd">
<svg width="100%" height="100%" viewBox="0 0 24 24" version="1.1" xmlns="http://www.w3.org/2000/svg"
     xmlns:xlink="http://www.w3.org/1999/xlink" xml:space="preserve" xmlns:serif="http://www.serif.com/"
     style="fill-rule:evenodd;clip-rule:evenodd;stroke-linejoin:round;stroke-miterlimit:2;">
    <g transform="matrix(1.17647,0,0,1.17647,-2.11769,-2.11769)">
        <path d="M5.308,20.5C4.803,20.5 4.375,20.325 4.025,19.975C3.675,19.625 3.5,19.197 3.5,18.692L3.5,5.308C3.5,4.803 3.675,4.375 4.025,4.025C4.375,3.675 4.803,3.5 5.308,3.5L18.692,3.5C19.197,3.5 19.625,3.675 19.975,4.025C20.325,4.375 20.5,4.803 20.5,5.308L20.5,18.692C20.5,19.197 20.325,19.625 19.975,19.975C19.625,20.325 19.197,20.5 18.692,20.5L5.308,20.5ZM5.308,19L18.692,19C18.769,19 18.84,18.968 18.904,18.904C18.968,18.84 19,18.769 19,18.692L19,5.308C19,5.231 18.968,5.16 18.904,5.096C18.84,5.032 18.769,5 18.692,5L5.308,5C5.231,5 5.16,5.032 5.096,5.096C5.032,5.16 5,5.231 5,5.308L5,18.692C5,18.769 5.032,18.84 5.096,18.904C5.16,18.968 5.231,19 5.308,19Z"
              style="fill:rgb(24,137,169);fill-rule:nonzero;"/>
    </g>
</svg>
