<?xml version="1.0" encoding="UTF-8" standalone="no"?>
<!DOCTYPE svg PUBLIC "-//W3C//DTD SVG 1.1//EN" "http://www.w3.org/Graphics/SVG/1.1/DTD/svg11.dtd">
<svg width="100%" height="100%" viewBox="0 0 24 24" version="1.1" xmlns="http://www.w3.org/2000/svg" xmlns:xlink="http://www.w3.org/1999/xlink" xml:space="preserve" xmlns:serif="http://www.serif.com/" style="fill-rule:evenodd;clip-rule:evenodd;stroke-linejoin:round;stroke-miterlimit:2;">
    <g transform="matrix(1.11982,0,0,1.11982,-0.377879,-1.37789)">
        <path d="M9.038,17C8.606,17 8.242,16.852 7.945,16.555C7.648,16.258 7.5,15.894 7.5,15.462L7.5,4.692C7.5,4.26 7.648,3.896 7.945,3.599C8.242,3.302 8.606,3.154 9.038,3.154L16.808,3.154C17.24,3.154 17.604,3.302 17.901,3.599C18.198,3.896 18.346,4.26 18.346,4.692L18.346,15.462C18.346,15.894 18.198,16.258 17.901,16.555C17.604,16.852 17.24,17 16.808,17L9.038,17ZM9.038,16.077L16.808,16.077C16.962,16.077 17.103,16.013 17.231,15.885C17.359,15.756 17.423,15.615 17.423,15.462L17.423,4.692C17.423,4.538 17.359,4.397 17.231,4.269C17.103,4.141 16.962,4.077 16.808,4.077L9.038,4.077C8.885,4.077 8.744,4.141 8.615,4.269C8.487,4.397 8.423,4.538 8.423,4.692L8.423,15.462C8.423,15.615 8.487,15.756 8.615,15.885C8.744,16.013 8.885,16.077 9.038,16.077ZM8.423,16.077L8.423,4.077L8.423,16.077Z" style="fill:rgb(0,109,208);fill-rule:nonzero;"/>
        <g transform="matrix(1,0,0,1,0.893004,-0.893004)">
            <path d="M6.192,19.846C5.76,19.846 5.396,19.698 5.099,19.401C4.802,19.104 4.654,18.74 4.654,18.308L4.654,7.072C4.654,6.949 4.699,6.843 4.789,6.752C4.88,6.661 4.988,6.615 5.115,6.615C5.242,6.615 5.351,6.661 5.441,6.752C5.532,6.843 5.577,6.949 5.577,7.072L5.577,18.308C5.577,18.462 5.641,18.603 5.769,18.731C5.897,18.859 6.038,18.923 6.192,18.923L14.428,18.923C14.551,18.923 14.657,18.969 14.748,19.059C14.839,19.15 14.885,19.257 14.885,19.38C14.885,19.51 14.839,19.62 14.748,19.711C14.657,19.801 14.551,19.846 14.428,19.846L6.192,19.846Z" style="fill:rgb(127,127,127);fill-rule:nonzero;"/>
        </g>
        <g transform="matrix(1,0,0,1,-0.893004,0.893004)">
            <path d="M6.192,19.846C5.76,19.846 5.396,19.698 5.099,19.401C4.802,19.104 4.654,18.74 4.654,18.308L4.654,7.072C4.654,6.949 4.699,6.843 4.789,6.752C4.88,6.661 4.988,6.615 5.115,6.615C5.242,6.615 5.351,6.661 5.441,6.752C5.532,6.843 5.577,6.949 5.577,7.072L5.577,18.308C5.577,18.462 5.641,18.603 5.769,18.731C5.897,18.859 6.038,18.923 6.192,18.923L14.428,18.923C14.551,18.923 14.657,18.969 14.748,19.059C14.839,19.15 14.885,19.257 14.885,19.38C14.885,19.51 14.839,19.62 14.748,19.711C14.657,19.801 14.551,19.846 14.428,19.846L6.192,19.846Z" style="fill:rgb(127,127,127);fill-rule:nonzero;"/>
        </g>
    </g>
</svg>
