<?xml version="1.0" encoding="UTF-8" standalone="no"?>
<!DOCTYPE svg PUBLIC "-//W3C//DTD SVG 1.1//EN" "http://www.w3.org/Graphics/SVG/1.1/DTD/svg11.dtd">
<svg width="100%" height="100%" viewBox="0 0 16 16" version="1.1" xmlns="http://www.w3.org/2000/svg" xmlns:xlink="http://www.w3.org/1999/xlink" xml:space="preserve" xmlns:serif="http://www.serif.com/" style="fill-rule:evenodd;clip-rule:evenodd;stroke-linejoin:round;stroke-miterlimit:2;">
    <g>
        <path d="M4.203,5.181l8.384,0l-0,-1.624c-0,-0.394 -0.32,-0.714 -0.714,-0.714l-5.568,-0c-0.341,-0 -0.634,-0.241 -0.701,-0.575l-0.137,-0.693c-0.066,-0.334 -0.359,-0.575 -0.7,-0.575l-4.053,0c-0.394,-0 -0.714,0.32 -0.714,0.714l0,10.399c0,0.395 0.32,0.714 0.714,0.714l0.959,0c0.347,0 0.644,-0.249 0.703,-0.591l1.124,-6.463c0.06,-0.342 0.356,-0.592 0.703,-0.592Z" style="fill:#3f3f3f;fill-rule:nonzero;"/>
        <path d="M15.608,5.846l-10.74,0c-0.347,0 -0.643,0.25 -0.703,0.592l-1.031,5.93c-0.042,0.24 0.143,0.459 0.386,0.459l10.739,0c0.347,0 0.644,-0.249 0.704,-0.591l1.031,-5.93c0.042,-0.24 -0.143,-0.46 -0.386,-0.46Zm-2.977,3.055l-0.177,1.019c-0.036,0.205 -0.214,0.355 -0.423,0.355l-5.112,0c-0.266,0 -0.468,-0.24 -0.423,-0.502l0.177,-1.019c0.036,-0.206 0.215,-0.356 0.423,-0.356l5.112,0c0.267,0 0.469,0.24 0.423,0.503Z" style="fill:#3f3f3f;fill-rule:nonzero;"/>
    </g>
</svg>
