<?xml version="1.0" encoding="UTF-8" standalone="no"?>
<!DOCTYPE svg PUBLIC "-//W3C//DTD SVG 1.1//EN" "http://www.w3.org/Graphics/SVG/1.1/DTD/svg11.dtd">
<svg width="100%" height="100%" viewBox="0 0 16 16" version="1.1" xmlns="http://www.w3.org/2000/svg"
     xmlns:xlink="http://www.w3.org/1999/xlink" xml:space="preserve" xmlns:serif="http://www.serif.com/"
     style="fill-rule:evenodd;clip-rule:evenodd;stroke-linejoin:round;stroke-miterlimit:2;">
    <g>
        <path d="M4.203,5.181L12.587,5.181L12.587,3.557C12.587,3.163 12.267,2.843 11.873,2.843L6.305,2.843C5.964,2.843 5.671,2.602 5.604,2.268L5.467,1.575C5.401,1.241 5.108,1 4.767,1L0.714,1C0.32,1 0,1.32 0,1.714L0,12.113C0,12.508 0.32,12.827 0.714,12.827L1.673,12.827C2.02,12.827 2.317,12.578 2.376,12.236L3.5,5.773C3.56,5.431 3.856,5.181 4.203,5.181Z"
              style="fill:white;fill-rule:nonzero;"/>
        <path d="M15.608,5.846L4.868,5.846C4.521,5.846 4.225,6.096 4.165,6.438L3.134,12.368C3.092,12.608 3.277,12.827 3.52,12.827L14.259,12.827C14.606,12.827 14.903,12.578 14.963,12.236L15.994,6.306C16.036,6.066 15.851,5.846 15.608,5.846ZM12.631,8.901L12.454,9.92C12.418,10.125 12.24,10.275 12.031,10.275L6.919,10.275C6.653,10.275 6.451,10.035 6.496,9.773L6.673,8.754C6.709,8.548 6.888,8.398 7.096,8.398L12.208,8.398C12.475,8.398 12.677,8.638 12.631,8.901Z"
              style="fill:white;fill-rule:nonzero;"/>
    </g>
</svg>
