<?xml version="1.0" encoding="UTF-8" standalone="no"?>
<!DOCTYPE svg PUBLIC "-//W3C//DTD SVG 1.1//EN" "http://www.w3.org/Graphics/SVG/1.1/DTD/svg11.dtd">
<svg width="100%" height="100%" viewBox="0 0 32 32" version="1.1" xmlns="http://www.w3.org/2000/svg" xmlns:xlink="http://www.w3.org/1999/xlink" xml:space="preserve" xmlns:serif="http://www.serif.com/" style="fill-rule:evenodd;clip-rule:evenodd;stroke-linejoin:round;stroke-miterlimit:2;">
    <g transform="matrix(1.14002,0,0,1.12353,2.30549,2.51762)">
        <g id="g3">
            <path d="M4.725,19.75C3.783,19.75 2.981,19.417 2.321,18.752C1.661,18.087 1.321,17.276 1.3,16.321C1.3,16.18 1.307,16.041 1.32,15.904C1.334,15.767 1.357,15.626 1.39,15.483L3.49,7.083C3.709,6.24 4.155,5.557 4.827,5.034C5.499,4.511 6.265,4.25 7.125,4.25L16.875,4.25C17.735,4.25 18.501,4.511 19.173,5.034C19.845,5.557 20.291,6.24 20.51,7.083L22.61,15.483C22.643,15.626 22.67,15.771 22.692,15.916C22.714,16.062 22.725,16.205 22.725,16.346C22.725,17.301 22.388,18.107 21.714,18.764C21.041,19.421 20.228,19.75 19.276,19.75C18.62,19.75 18.015,19.578 17.46,19.234C16.904,18.889 16.483,18.423 16.196,17.835L15.487,16.375C15.384,16.167 15.23,16.01 15.025,15.906C14.82,15.802 14.603,15.75 14.375,15.75L9.625,15.75C9.398,15.75 9.182,15.801 8.976,15.904C8.77,16.006 8.616,16.163 8.513,16.375L7.804,17.835C7.523,18.429 7.103,18.897 6.543,19.238C5.984,19.579 5.378,19.75 4.725,19.75ZM4.803,18.25C5.162,18.25 5.492,18.154 5.792,17.962C6.092,17.769 6.319,17.512 6.471,17.19L7.171,15.756C7.401,15.284 7.739,14.915 8.184,14.649C8.629,14.383 9.11,14.25 9.625,14.25L14.375,14.25C14.894,14.25 15.375,14.389 15.818,14.666C16.261,14.944 16.606,15.31 16.854,15.765L17.554,17.19C17.706,17.512 17.933,17.769 18.233,17.962C18.533,18.154 18.865,18.25 19.229,18.25C19.766,18.25 20.226,18.07 20.609,17.711C20.993,17.351 21.19,16.906 21.2,16.375C21.2,16.366 21.18,16.188 21.14,15.842L19.04,7.467C18.911,6.966 18.647,6.554 18.249,6.233C17.851,5.911 17.393,5.75 16.875,5.75L7.125,5.75C6.6,5.75 6.136,5.911 5.733,6.233C5.33,6.554 5.072,6.966 4.96,7.467L2.86,15.842C2.833,15.929 2.813,16.099 2.8,16.35C2.8,16.887 2.996,17.338 3.389,17.703C3.782,18.068 4.253,18.25 4.803,18.25ZM13.5,10.885C13.745,10.885 13.954,10.798 14.126,10.626C14.298,10.454 14.385,10.245 14.385,10C14.385,9.755 14.298,9.546 14.126,9.374C13.954,9.202 13.745,9.115 13.5,9.115C13.255,9.115 13.046,9.202 12.874,9.374C12.702,9.546 12.615,9.755 12.615,10C12.615,10.245 12.702,10.454 12.874,10.626C13.046,10.798 13.255,10.885 13.5,10.885ZM15.5,8.885C15.745,8.885 15.954,8.798 16.126,8.626C16.298,8.454 16.385,8.245 16.385,8C16.385,7.755 16.298,7.546 16.126,7.374C15.954,7.202 15.745,7.115 15.5,7.115C15.255,7.115 15.046,7.202 14.874,7.374C14.702,7.546 14.615,7.755 14.615,8C14.615,8.245 14.702,8.454 14.874,8.626C15.046,8.798 15.255,8.885 15.5,8.885ZM15.5,12.885C15.745,12.885 15.954,12.798 16.126,12.626C16.298,12.454 16.385,12.245 16.385,12C16.385,11.755 16.298,11.546 16.126,11.374C15.954,11.202 15.745,11.115 15.5,11.115C15.255,11.115 15.046,11.202 14.874,11.374C14.702,11.546 14.615,11.755 14.615,12C14.615,12.245 14.702,12.454 14.874,12.626C15.046,12.798 15.255,12.885 15.5,12.885ZM17.5,10.885C17.745,10.885 17.954,10.798 18.126,10.626C18.298,10.454 18.385,10.245 18.385,10C18.385,9.755 18.298,9.546 18.126,9.374C17.954,9.202 17.745,9.115 17.5,9.115C17.255,9.115 17.046,9.202 16.874,9.374C16.702,9.546 16.615,9.755 16.615,10C16.615,10.245 16.702,10.454 16.874,10.626C17.046,10.798 17.255,10.885 17.5,10.885ZM8.5,12.346C8.672,12.346 8.814,12.29 8.927,12.177C9.04,12.065 9.096,11.922 9.096,11.75L9.096,10.596L10.25,10.596C10.422,10.596 10.565,10.54 10.677,10.427C10.79,10.315 10.846,10.173 10.846,10C10.846,9.828 10.79,9.686 10.677,9.573C10.565,9.46 10.422,9.404 10.25,9.404L9.096,9.404L9.096,8.25C9.096,8.078 9.04,7.935 8.927,7.823C8.815,7.71 8.673,7.654 8.5,7.654C8.328,7.654 8.186,7.71 8.073,7.823C7.96,7.935 7.904,8.078 7.904,8.25L7.904,9.404L6.75,9.404C6.578,9.404 6.435,9.46 6.323,9.573C6.21,9.685 6.154,9.827 6.154,10C6.154,10.172 6.21,10.314 6.323,10.427C6.435,10.54 6.578,10.596 6.75,10.596L7.904,10.596L7.904,11.75C7.904,11.922 7.96,12.065 8.073,12.177C8.185,12.29 8.327,12.346 8.5,12.346Z" style="fill:white;fill-rule:nonzero;"/>
        </g>
    </g>
</svg>
