<?xml version="1.0" encoding="UTF-8" standalone="no"?>
<!DOCTYPE svg PUBLIC "-//W3C//DTD SVG 1.1//EN" "http://www.w3.org/Graphics/SVG/1.1/DTD/svg11.dtd">
<svg width="100%" height="100%" viewBox="0 0 16 16" version="1.1" xmlns="http://www.w3.org/2000/svg"
     xmlns:xlink="http://www.w3.org/1999/xlink" xml:space="preserve" xmlns:serif="http://www.serif.com/"
     style="fill-rule:evenodd;clip-rule:evenodd;stroke-linejoin:round;stroke-miterlimit:2;">
    <g transform="matrix(0.77771,0,0,0.77771,0.999392,1.77832)">
        <path d="M9,1C6.475,1 4.453,2.15 2.981,3.519C1.519,4.875 0.541,6.5 0.078,7.616C-0.025,7.863 -0.025,8.137 0.078,8.384C0.541,9.5 1.519,11.125 2.981,12.481C4.453,13.85 6.475,15 9,15C11.525,15 13.547,13.85 15.019,12.481C16.481,11.122 17.459,9.5 17.925,8.384C18.028,8.137 18.028,7.862 17.925,7.616C17.459,6.5 16.481,4.875 15.019,3.519C13.547,2.15 11.525,1 9,1ZM4.5,8C4.5,5.531 6.531,3.5 9,3.5C11.469,3.5 13.5,5.531 13.5,8C13.5,10.469 11.469,12.5 9,12.5C6.531,12.5 4.5,10.469 4.5,8ZM9,6C9,7.103 8.103,8 7,8C6.778,8 6.566,7.963 6.366,7.897C6.194,7.841 5.994,7.947 6,8.128C6.009,8.344 6.041,8.559 6.1,8.775C6.528,10.375 8.175,11.325 9.775,10.897C11.375,10.469 12.325,8.822 11.897,7.222C11.55,5.925 10.403,5.053 9.128,5C8.947,4.994 8.841,5.191 8.897,5.366C8.962,5.566 9,5.778 9,6Z"
              style="fill:white;fill-rule:nonzero;"/>
    </g>
</svg>
