<?xml version="1.0" encoding="UTF-8" standalone="no"?>
<!DOCTYPE svg PUBLIC "-//W3C//DTD SVG 1.1//EN" "http://www.w3.org/Graphics/SVG/1.1/DTD/svg11.dtd">
<svg width="100%" height="100%" viewBox="0 0 16 16" version="1.1" xmlns="http://www.w3.org/2000/svg" xmlns:xlink="http://www.w3.org/1999/xlink" xml:space="preserve" xmlns:serif="http://www.serif.com/" style="fill-rule:evenodd;clip-rule:evenodd;stroke-linejoin:round;stroke-miterlimit:2;">
    <g transform="matrix(0.77771,0,0,0.77771,0.999392,1.77832)">
        <path d="M9,2.5C6.963,2.5 5.287,3.425 4.003,4.616C2.8,5.734 1.969,7.063 1.544,8C1.969,8.938 2.8,10.266 4,11.384C5.287,12.575 6.963,13.5 9,13.5C11.038,13.5 12.713,12.575 13.997,11.384C15.2,10.266 16.031,8.938 16.456,8C16.031,7.063 15.2,5.734 14,4.616C12.713,3.425 11.038,2.5 9,2.5ZM2.981,3.519C4.453,2.15 6.475,1 9,1C11.525,1 13.547,2.15 15.019,3.519C16.481,4.878 17.459,6.5 17.925,7.616C18.028,7.863 18.028,8.137 17.925,8.384C17.459,9.5 16.481,11.125 15.019,12.481C13.547,13.85 11.525,15 9,15C6.475,15 4.453,13.85 2.981,12.481C1.519,11.125 0.541,9.5 0.078,8.384C-0.025,8.138 -0.025,7.863 0.078,7.616C0.541,6.5 1.519,4.875 2.981,3.519ZM9,10.5C10.381,10.5 11.5,9.381 11.5,8C11.5,6.619 10.381,5.5 9,5.5L8.938,5.5C8.978,5.659 9,5.828 9,6C9,7.103 8.103,8 7,8C6.828,8 6.659,7.978 6.5,7.938L6.5,8C6.5,9.381 7.619,10.5 9,10.5ZM9,4C11.194,4 13,5.806 13,8C13,10.194 11.194,12 9,12C6.806,12 5,10.194 5,8C5,5.806 6.806,4 9,4Z" style="fill:rgb(212,212,212);fill-rule:nonzero;"/>
    </g>
    <g transform="matrix(0.920194,-0.920194,0.80723,0.80723,-1.01375,14.2736)">
        <rect x="2" y="1" width="13" height="1" style="fill:white;"/>
    </g>
</svg>
