<?xml version="1.0" encoding="UTF-8" standalone="no"?>
<!DOCTYPE svg PUBLIC "-//W3C//DTD SVG 1.1//EN" "http://www.w3.org/Graphics/SVG/1.1/DTD/svg11.dtd">
<svg width="100%" height="100%" viewBox="0 0 24 24" version="1.1" xmlns="http://www.w3.org/2000/svg"
     xmlns:xlink="http://www.w3.org/1999/xlink" xml:space="preserve" xmlns:serif="http://www.serif.com/"
     style="fill-rule:evenodd;clip-rule:evenodd;stroke-linejoin:round;stroke:#AAAAAA;stroke-miterlimit:2;stroke-width:1.9px">
    <g transform="matrix(0.02335,0,0,0.02335,2.66042,2.6598)">
        <path d="M784.709,0.021C784.172,0.039 783.636,0.089 783.106,0.166L251.784,0.166C247.856,0.166 244.088,1.727 241.312,4.506L4.328,241.49C1.555,244.269 -0.003,248.034 0,251.962L0,785.177C0,793.356 6.633,799.988 14.812,799.988L548.026,799.988C551.954,799.988 555.722,798.427 558.498,795.648L795.482,558.664C798.261,555.885 799.822,552.12 799.822,548.192L799.822,17.238C800.237,14.592 799.926,11.885 798.925,9.402C798.877,9.269 798.827,9.136 798.774,9.002C796.38,3.404 790.805,-0.16 784.72,0.018L784.709,0.021ZM257.916,29.789L749.241,29.789L541.88,237.15L50.555,237.15L257.916,29.789ZM770.187,50.732L770.187,542.057L562.826,749.419L562.826,258.094L770.187,50.732ZM251.559,59.202C243.386,59.326 236.857,66.048 236.973,74.221L236.973,192.713C236.857,200.892 243.395,207.619 251.574,207.735C259.753,207.85 266.48,201.312 266.596,193.133C266.599,192.994 266.599,192.855 266.596,192.716L266.596,74.224C266.711,66.045 260.173,59.32 251.991,59.205C251.849,59.199 251.704,59.199 251.559,59.202ZM29.611,266.773L533.203,266.773L533.203,770.365L29.611,770.365L29.611,266.773ZM251.559,296.186C243.386,296.31 236.857,303.032 236.973,311.205L236.973,400.074C236.857,408.253 243.395,414.98 251.574,415.096C259.753,415.211 266.48,408.674 266.596,400.495C266.599,400.355 266.599,400.216 266.596,400.077L266.596,311.208C266.711,303.029 260.173,296.305 251.991,296.189C251.849,296.183 251.704,296.183 251.559,296.186ZM251.559,473.924C243.386,474.049 236.857,480.77 236.973,488.943L236.973,542.057L182.066,596.964C176.165,602.631 175.973,612.006 181.64,617.907C187.307,623.808 196.682,624.001 202.583,618.334C202.728,618.194 202.87,618.052 203.01,617.907L257.916,563.001L311.03,563.001C319.209,563.116 325.936,556.579 326.052,548.4C326.168,540.221 319.63,533.493 311.451,533.378C311.312,533.375 311.172,533.375 311.033,533.378L266.599,533.378L266.599,488.943C266.714,480.764 260.176,474.04 251.994,473.924C251.849,473.921 251.704,473.921 251.559,473.924ZM399.899,533.378C391.72,533.262 384.993,539.8 384.877,547.979C384.762,556.158 391.3,562.885 399.479,563.001C399.618,563.004 399.757,563.004 399.896,563.001L488.765,563.001C496.944,563.116 503.672,556.579 503.787,548.4C503.903,540.221 497.365,533.493 489.186,533.378C489.047,533.375 488.908,533.375 488.768,533.378L399.899,533.378ZM607.261,533.378C599.082,533.262 592.354,539.8 592.239,547.979C592.123,556.158 598.661,562.885 606.84,563.001C606.979,563.004 607.118,563.004 607.258,563.001L725.75,563.001C733.929,563.116 740.656,556.579 740.772,548.4C740.887,540.221 734.349,533.493 726.17,533.378C726.031,533.375 725.892,533.375 725.753,533.378L607.261,533.378ZM133.002,651.728C129.154,651.843 125.501,653.452 122.817,656.213L63.571,715.459C57.67,721.126 57.478,730.501 63.144,736.402C68.811,742.303 78.187,742.496 84.088,736.829C84.233,736.69 84.375,736.547 84.515,736.402L143.761,677.156C149.626,671.454 149.759,662.075 144.057,656.21C141.166,653.23 137.155,651.603 133.002,651.728Z"
              style="fill:rgb(187,187,187);fill-rule:nonzero;stroke:#AAAAAAL;stroke-width:2.9px;"/>
    </g>
</svg>
