<?xml version="1.0" encoding="UTF-8" standalone="no"?>
<!DOCTYPE svg PUBLIC "-//W3C//DTD SVG 1.1//EN" "http://www.w3.org/Graphics/SVG/1.1/DTD/svg11.dtd">
<svg width="100%" height="100%" viewBox="0 0 24 24" version="1.1" xmlns="http://www.w3.org/2000/svg"
     xmlns:xlink="http://www.w3.org/1999/xlink" xml:space="preserve" xmlns:serif="http://www.serif.com/"
     style="fill-rule:evenodd;clip-rule:evenodd;stroke-linejoin:round;stroke-miterlimit:2;">
    <g transform="matrix(0.0266714,0,0,0.0266714,1.33143,1.33143)">
        <path d="M700,250L550,250L550,100C549.966,72.584 527.416,50.034 500,50L100,50C72.584,50.034 50.034,72.584 50,100L50,500C50.034,527.416 72.584,549.966 100,550L250,550L250,700C250.034,727.416 272.584,749.966 300,750L700,750C727.416,749.966 749.966,727.416 750,700L750,300C749.966,272.584 727.416,250.034 700,250ZM100,500L100,100L500,100L500,250L300,250C272.584,250.034 250.034,272.584 250,300L250,500L100,500ZM300,700L300,550L500,550C527.416,549.966 549.966,527.416 550,500L550,300L700,300L700,700L300,700Z"
              style="fill:rgb(187,187,187);fill-rule:nonzero;"/>
    </g>
</svg>
