<?xml version="1.0" encoding="UTF-8" standalone="no"?>
<!DOCTYPE svg PUBLIC "-//W3C//DTD SVG 1.1//EN" "http://www.w3.org/Graphics/SVG/1.1/DTD/svg11.dtd">
<svg width="100%" height="100%" viewBox="0 0 24 24" version="1.1" xmlns="http://www.w3.org/2000/svg" xmlns:xlink="http://www.w3.org/1999/xlink" xml:space="preserve" xmlns:serif="http://www.serif.com/" style="fill-rule:evenodd;clip-rule:evenodd;stroke-linejoin:round;stroke-miterlimit:2;">
    <g id="g3" transform="matrix(0.642857,0,0,0.546429,1.71429,-90.1822)">
        <path id="rect836" d="M31.167,198.373L31.167,175.627L0.833,175.627L0.833,198.373L31.167,198.373ZM30,177L2,177L2,197L30,197L30,177Z" style="fill:white;"/>
        <g>
            <rect id="rect838" x="4" y="180" width="3" height="2" style="fill:white;"/>
            <rect id="rect838-3" x="8" y="180" width="2" height="2" style="fill:white;"/>
            <rect id="rect838-3-7" x="11" y="180" width="2" height="2" style="fill:white;"/>
            <rect id="rect838-6-5" x="14" y="180" width="2" height="2" style="fill:white;"/>
            <rect id="rect838-3-7-3" x="17" y="180" width="2" height="2" style="fill:white;"/>
            <rect id="rect838-6-5-5" x="20" y="180" width="2" height="2" style="fill:white;"/>
            <rect id="rect838-3-7-3-6" x="23" y="180" width="2" height="2" style="fill:white;"/>
            <rect id="rect838-3-7-3-6-2" x="26" y="180" width="2" height="2" style="fill:white;"/>
            <rect id="rect838-9" x="4" y="183" width="4" height="2" style="fill:white;"/>
            <rect id="rect838-6-1" x="9" y="183" width="2" height="2" style="fill:white;"/>
            <rect id="rect838-6-5-7" x="12" y="183" width="2" height="2" style="fill:white;"/>
            <rect id="rect838-3-7-3-0" x="15" y="183" width="2" height="2" style="fill:white;"/>
            <rect id="rect838-6-5-5-9" x="18" y="183" width="2" height="2" style="fill:white;"/>
            <rect id="rect838-3-7-3-6-3" x="21" y="183" width="2" height="2" style="fill:white;"/>
            <rect id="rect838-9-6" x="24" y="183" width="4" height="2" style="fill:white;"/>
            <rect id="rect838-9-0" x="4" y="186" width="5" height="2" style="fill:white;"/>
            <rect id="rect838-6-1-6" x="10" y="186" width="2" height="2" style="fill:white;"/>
            <rect id="rect838-6-5-7-6" x="13" y="186" width="2" height="2" style="fill:white;"/>
            <rect id="rect838-3-7-3-0-1" x="16" y="186" width="2" height="2" style="fill:white;"/>
            <rect id="rect838-6-5-5-9-8" x="19" y="186" width="2" height="2" style="fill:white;"/>
            <rect id="rect838-9-6-9" x="25" y="185" width="3" height="3" style="fill:white;"/>
            <rect id="rect838-9-0-2" x="4" y="189" width="4" height="2" style="fill:white;"/>
            <rect id="rect838-6-1-6-0" x="9" y="189" width="2" height="2" style="fill:white;"/>
            <rect id="rect838-3-7-2-2-2" x="12" y="189" width="2" height="2" style="fill:white;"/>
            <rect id="rect838-3-7-3-0-1-7" x="15" y="189" width="2" height="2" style="fill:white;"/>
            <rect id="rect838-6-5-5-9-8-5" x="18" y="189" width="2" height="2" style="fill:white;"/>
            <rect id="rect838-9-6-9-9" x="21" y="189" width="7" height="2" style="fill:white;"/>
            <rect id="rect838-9-0-2-2" x="4" y="192" width="4" height="2" style="fill:white;"/>
            <rect id="rect838-9-0-2-28" x="9" y="192" width="11" height="2" style="fill:white;"/>
            <rect id="rect838-3-7-3-6-3-9" x="22" y="186" width="2" height="2" style="fill:white;"/>
            <rect id="rect838-9-0-2-2-7" x="21" y="192" width="3" height="2" style="fill:white;"/>
            <rect id="rect838-9-0-2-2-7-6" x="25" y="192" width="3" height="2" style="fill:white;"/>
        </g>
    </g>
</svg>
