<?xml version="1.0" encoding="UTF-8" standalone="no"?>
<!DOCTYPE svg PUBLIC "-//W3C//DTD SVG 1.1//EN" "http://www.w3.org/Graphics/SVG/1.1/DTD/svg11.dtd">
<svg width="100%" height="100%" viewBox="0 0 24 24" version="1.1" xmlns="http://www.w3.org/2000/svg"
     xmlns:xlink="http://www.w3.org/1999/xlink" xml:space="preserve" xmlns:serif="http://www.serif.com/"
     style="fill-rule:evenodd;clip-rule:evenodd;stroke-linejoin:round;stroke-miterlimit:2;">
    <g transform="matrix(1.37496,0,0,1.37496,3.06276,0.999154)">
        <path d="M10,1.5C10,0.677 9.323,0 8.5,0C7.677,-0 7,0.677 7,1.5C7,2.323 7.677,3 8.5,3C9.323,3 10,2.323 10,1.5ZM3.928,5.484C4.238,5.175 4.659,5 5.1,5C5.159,5 5.219,5.003 5.275,5.009L4.3,7.938C4.009,8.813 4.353,9.775 5.138,10.266L7.831,11.95L7.038,14.725C6.884,15.256 7.194,15.809 7.725,15.963C8.256,16.116 8.809,15.806 8.963,15.275L9.859,12.137C10.044,11.494 9.778,10.806 9.213,10.453L7.438,9.344L8.403,6.769L8.563,7.153C9.031,8.272 10.122,9 11.334,9L12,9C12.553,9 13,8.553 13,8C13,7.447 12.553,7 12,7L11.334,7C10.931,7 10.566,6.756 10.413,6.384L10.216,5.916C9.759,4.819 8.837,3.981 7.7,3.631L6.178,3.163C5.831,3.056 5.469,3 5.103,3C4.134,3 3.203,3.384 2.519,4.072L1.794,4.794C1.403,5.184 1.403,5.819 1.794,6.209C2.184,6.6 2.819,6.6 3.209,6.209L3.931,5.488L3.928,5.484ZM2.85,11L1,11C0.447,11 0,11.447 0,12C0,12.553 0.447,13 1,13L3.175,13C3.769,13 4.306,12.65 4.547,12.109L4.906,11.3L4.609,11.113C4.063,10.772 3.656,10.275 3.425,9.709L2.85,11Z"
              style="fill:rgb(94,147,241);fill-rule:nonzero;"/>
    </g>
</svg>
