<?xml version="1.0" encoding="UTF-8" standalone="no"?>
<!DOCTYPE svg PUBLIC "-//W3C//DTD SVG 1.1//EN" "http://www.w3.org/Graphics/SVG/1.1/DTD/svg11.dtd">
<svg width="100%" height="100%" viewBox="0 0 16 16" version="1.1" xmlns="http://www.w3.org/2000/svg"
     xmlns:xlink="http://www.w3.org/1999/xlink" xml:space="preserve" xmlns:serif="http://www.serif.com/"
     style="fill-rule:evenodd;clip-rule:evenodd;">
    <g id="path4576" transform="matrix(0.993785,0,0,1.00156,0.0312791,-0.523367)">
        <path d="M3.504,7C2.752,7 2,7.667 2,8.334L2,13.666C2,14.333 2.752,15 3.504,15L12.531,15C13.284,15 14.037,14.333 14.037,13.666L14.037,8.334C14.037,7.667 13.284,7 12.531,7L3.504,7ZM8,9C9.097,9 10,9.903 10,11C10,12.097 9.097,13 8,13C6.903,13 6,12.097 6,11C6,9.903 6.903,9 8,9Z"
              style="fill:white;fill-rule:nonzero;"/>
    </g>
    <g id="path4578" transform="matrix(0.993785,0,0,1.00156,0.00312657,-0.523367)">
        <path d="M5,7L5,5C5,5 4.646,2.02 7.98,2.02C11.313,2.02 11,5 11,5L11,7"
              style="fill:none;fill-rule:nonzero;stroke:white;stroke-width:2px;"/>
    </g>
</svg>
