<?xml version="1.0" encoding="UTF-8" standalone="no"?>
<!DOCTYPE svg PUBLIC "-//W3C//DTD SVG 1.1//EN" "http://www.w3.org/Graphics/SVG/1.1/DTD/svg11.dtd">
<svg width="100%" height="100%" viewBox="0 0 24 24" version="1.1" xmlns="http://www.w3.org/2000/svg"
     xmlns:xlink="http://www.w3.org/1999/xlink" xml:space="preserve" xmlns:serif="http://www.serif.com/"
     style="fill-rule:evenodd;clip-rule:evenodd;stroke-linejoin:round;stroke-miterlimit:2;">
    <g id="g3" transform="matrix(0.589156,0,0,0.589156,2.59736,-97.0109)">
        <path id="path5"
              d="M15.574,175.081C15.312,175.223 15.134,175.498 15.134,175.812L15.134,179.197C15.134,179.512 15.312,179.787 15.574,179.928C15.586,179.934 15.598,179.939 15.609,179.945L15.609,179.928C15.72,179.993 15.847,180.03 15.98,180.03C16.113,180.03 16.24,179.993 16.35,179.928L16.35,179.945C16.361,179.939 16.373,179.934 16.384,179.928C16.647,179.787 16.825,179.512 16.825,179.197L16.825,175.813C16.825,175.498 16.647,175.223 16.384,175.081C16.373,175.075 16.361,175.071 16.35,175.065L16.35,175.081C16.24,175.017 16.113,174.979 15.98,174.979C15.847,174.979 15.72,175.017 15.609,175.081L15.609,175.065C15.598,175.071 15.586,175.075 15.574,175.081Z"
              style="fill:white;fill-rule:nonzero;"/>
        <path id="path7"
              d="M6.971,179.301L6.971,180.938C9.529,182.359 11.863,182.939 14.987,183L14.987,181.056C14.976,181.053 14.964,181.051 14.952,181.048C14.275,180.87 14.374,180.44 14.374,179.718L14.374,175.552C14.374,174.83 14.275,174.219 14.952,174.042C14.964,174.039 14.976,174.037 14.987,174.034L14.987,172.011L14.373,172.011C10.303,172.011 6.971,175.292 6.971,179.301Z"
              style="fill:white;fill-rule:nonzero;"/>
        <path id="path9"
              d="M17.546,172.01L16.932,172.01L16.932,174.033C16.943,174.036 16.955,174.038 16.966,174.041C17.645,174.218 17.546,174.829 17.546,175.551L17.546,179.717C17.546,180.439 17.645,180.87 16.966,181.047C16.955,181.05 16.943,181.052 16.932,181.055L16.952,183C20.076,182.939 22.391,182.359 24.948,180.937L24.948,179.3C24.948,175.291 21.617,172.01 17.546,172.01Z"
              style="fill:white;fill-rule:nonzero;"/>
        <path id="path11"
              d="M6.971,182.993L6.971,190.757C6.971,194.767 10.303,198.048 14.373,198.048L17.546,198.048C21.617,198.048 24.948,194.767 24.948,190.757L24.948,182.993C22.268,184.408 19.267,185.031 16.02,185.031C12.773,185.031 9.651,184.409 6.971,182.993Z"
              style="fill:white;fill-rule:nonzero;"/>
    </g>
</svg>
