<?xml version="1.0" encoding="UTF-8" standalone="no"?>
<!DOCTYPE svg PUBLIC "-//W3C//DTD SVG 1.1//EN" "http://www.w3.org/Graphics/SVG/1.1/DTD/svg11.dtd">
<svg width="100%" height="100%" viewBox="0 0 24 24" version="1.1" xmlns="http://www.w3.org/2000/svg"
     xmlns:xlink="http://www.w3.org/1999/xlink" xml:space="preserve" xmlns:serif="http://www.serif.com/"
     style="fill-rule:evenodd;clip-rule:evenodd;stroke-linejoin:round;stroke-miterlimit:2;">
    <g transform="matrix(1.04597,0.0194527,-0.0194527,1.04597,0.139458,-0.872312)">
        <path d="M14.363,19.697C14.111,19.814 13.865,19.827 13.623,19.734C13.381,19.642 13.202,19.47 13.085,19.218L10.143,12.892L8.157,15.634C7.935,15.945 7.649,16.044 7.299,15.932C6.949,15.82 6.774,15.577 6.774,15.202L6.774,5.165C6.774,4.844 6.919,4.614 7.209,4.475C7.499,4.337 7.773,4.363 8.03,4.556L16.034,10.839C16.321,11.076 16.402,11.366 16.274,11.71C16.146,12.054 15.903,12.226 15.542,12.226L11.935,12.226L14.841,18.429C14.952,18.672 14.961,18.916 14.869,19.162C14.776,19.408 14.607,19.586 14.363,19.697Z"
              style="fill:rgb(189,189,189);fill-rule:nonzero;"/>
    </g>
</svg>
