<?xml version="1.0" encoding="UTF-8" standalone="no"?>
<!DOCTYPE svg PUBLIC "-//W3C//DTD SVG 1.1//EN" "http://www.w3.org/Graphics/SVG/1.1/DTD/svg11.dtd">
<svg width="100%" height="100%" viewBox="0 0 24 24" version="1.1" xmlns="http://www.w3.org/2000/svg"
     xmlns:xlink="http://www.w3.org/1999/xlink" xml:space="preserve" xmlns:serif="http://www.serif.com/"
     style="fill-rule:evenodd;clip-rule:evenodd;stroke-linejoin:round;stroke-miterlimit:2;">
    <g transform="matrix(1.22485,0,0,1.22485,-2.57452,-2.08576)">
        <path d="M9.621,18.5C8.158,18.5 6.905,18.01 5.863,17.031C4.82,16.051 4.298,14.846 4.298,13.413C4.298,11.981 4.82,10.777 5.863,9.801C6.905,8.825 8.158,8.337 9.621,8.337L16.642,8.337L13.86,5.554L14.913,4.5L19.5,9.087L14.913,13.673L13.86,12.619L16.642,9.837L9.621,9.837C8.578,9.837 7.679,10.179 6.927,10.865C6.174,11.551 5.798,12.401 5.798,13.413C5.798,14.426 6.174,15.277 6.927,15.966C7.679,16.655 8.578,17 9.621,17L16.798,17L16.798,18.5L9.621,18.5Z"
              style="fill:rgb(127,127,127);fill-rule:nonzero;"/>
    </g>
</svg>
