<?xml version="1.0" encoding="UTF-8" standalone="no"?>
<!DOCTYPE svg PUBLIC "-//W3C//DTD SVG 1.1//EN" "http://www.w3.org/Graphics/SVG/1.1/DTD/svg11.dtd">
<svg width="100%" height="100%" viewBox="0 0 16 16" version="1.1" xmlns="http://www.w3.org/2000/svg" xmlns:xlink="http://www.w3.org/1999/xlink" xml:space="preserve" xmlns:serif="http://www.serif.com/" style="fill-rule:evenodd;clip-rule:evenodd;stroke-linejoin:round;stroke-miterlimit:2;">
    <g id="rect1529" transform="matrix(1,0,0,1,0.979239,-0.52076)">
        <rect x="1" y="5" width="2" height="9" style="fill:white;"/>
    </g>
    <g id="rect1529-1" transform="matrix(1,0,0,1,0.979239,-0.52076)">
        <rect x="1" y="13" width="9" height="2" style="fill:white;"/>
    </g>
    <g id="path1565" transform="matrix(1,0,0,1.66667,0.979239,-4.52076)">
        <path d="M0.042,6L4.042,6L2,3L0.042,6Z" style="fill:white;fill-rule:nonzero;"/>
    </g>
    <g id="path1565-2" transform="matrix(1.66667,0,0,1,-5.02076,-0.52076)">
        <path d="M9,12.042L9,16.042L12,14L9,12.042Z" style="fill:white;fill-rule:nonzero;"/>
    </g>
    <g id="rect1546" transform="matrix(0.707107,0.707107,-0.707107,0.707107,-1.24264,1.22188)">
        <rect x="10.314" y="-6.757" width="2" height="10" style="fill:rgb(248,83,83);"/>
    </g>
    <g id="rect1546-6" transform="matrix(-0.707107,0.707107,-0.707107,-0.707107,-1.24264,1.22188)">
        <rect x="-2.757" y="-16.314" width="2" height="10" style="fill:rgb(248,83,83);"/>
    </g>
</svg>
