<?xml version="1.0" encoding="UTF-8" standalone="no"?>
<!DOCTYPE svg PUBLIC "-//W3C//DTD SVG 1.1//EN" "http://www.w3.org/Graphics/SVG/1.1/DTD/svg11.dtd">
<svg width="100%" height="100%" viewBox="0 0 24 24" version="1.1" xmlns="http://www.w3.org/2000/svg"
     xmlns:xlink="http://www.w3.org/1999/xlink" xml:space="preserve" xmlns:serif="http://www.serif.com/"
     style="fill-rule:evenodd;clip-rule:evenodd;stroke-linejoin:round;">
    <path d="M12,21.75C9.931,21.75 8.064,21.162 6.401,19.987C4.738,18.812 3.557,17.271 2.86,15.362C2.796,15.163 2.808,14.976 2.896,14.801C2.985,14.626 3.13,14.506 3.333,14.442C3.535,14.378 3.728,14.403 3.911,14.515C4.095,14.628 4.224,14.784 4.3,14.983C4.913,16.563 5.918,17.837 7.316,18.802C8.713,19.767 10.275,20.25 12,20.25C13.555,20.25 14.985,19.84 16.288,19.019C17.592,18.199 18.623,17.109 19.381,15.75L17,15.75C16.788,15.75 16.609,15.678 16.466,15.534C16.322,15.39 16.25,15.212 16.25,15C16.25,14.787 16.322,14.609 16.466,14.465C16.609,14.322 16.788,14.25 17,14.25L20.846,14.25C21.102,14.25 21.317,14.337 21.49,14.51C21.663,14.683 21.75,14.898 21.75,15.154L21.75,19C21.75,19.212 21.678,19.391 21.534,19.534C21.39,19.678 21.212,19.75 21,19.75C20.787,19.75 20.609,19.678 20.465,19.534C20.322,19.391 20.25,19.212 20.25,19L20.25,17.173C19.319,18.574 18.133,19.687 16.691,20.512C15.25,21.337 13.686,21.75 12,21.75L12,21.75ZM12,3.75C10.445,3.75 9.015,4.16 7.712,4.981C6.408,5.801 5.377,6.891 4.619,8.25L7,8.25C7.213,8.25 7.391,8.322 7.534,8.466C7.678,8.61 7.75,8.788 7.75,9C7.75,9.213 7.678,9.391 7.534,9.535C7.391,9.678 7.213,9.75 7,9.75L3.154,9.75C2.898,9.75 2.683,9.663 2.51,9.49C2.337,9.317 2.25,9.102 2.25,8.846L2.25,5C2.25,4.787 2.322,4.609 2.466,4.466C2.61,4.322 2.788,4.25 3,4.25C3.213,4.25 3.391,4.322 3.535,4.466C3.678,4.609 3.75,4.787 3.75,5L3.75,6.827C4.681,5.426 5.867,4.313 7.309,3.488C8.75,2.663 10.314,2.25 12,2.25C14.069,2.25 15.937,2.838 17.604,4.013C19.27,5.188 20.453,6.729 21.15,8.638C21.214,8.837 21.2,9.024 21.109,9.199C21.017,9.374 20.87,9.494 20.667,9.558C20.465,9.622 20.272,9.597 20.089,9.485C19.905,9.372 19.776,9.216 19.7,9.017C19.087,7.437 18.082,6.163 16.684,5.198C15.287,4.233 13.725,3.75 12,3.75Z"
          style="fill:rgb(0,109,208);fill-rule:nonzero;"/>
    <g id="path4927-9-1" transform="matrix(1.09524,0,0,1.09524,8.17435,-1118.13)">
        <circle cx="3.5" cy="1031.86" r="2"
                style="fill:rgb(127,127,127);stroke:rgb(255,127,0);stroke-width:0.5px;stroke-dasharray:0,5.5;"/>
    </g>
</svg>
