<?xml version="1.0" encoding="UTF-8" standalone="no"?>
<!DOCTYPE svg PUBLIC "-//W3C//DTD SVG 1.1//EN" "http://www.w3.org/Graphics/SVG/1.1/DTD/svg11.dtd">
<svg width="100%" height="100%" viewBox="0 0 24 24" version="1.1" xmlns="http://www.w3.org/2000/svg"
     xmlns:xlink="http://www.w3.org/1999/xlink" xml:space="preserve" xmlns:serif="http://www.serif.com/"
     style="fill-rule:evenodd;clip-rule:evenodd;stroke-miterlimit:2;">
    <g id="inner" transform="matrix(1.11758,0,0,1.14039,-1.41209,-1.67645)">
        <g transform="matrix(1,0,0,1.59215,0,-5.47741)">
            <rect x="3.509" y="8.969" width="17.001" height="0.562" style="fill:rgb(127,127,127);"/>
        </g>
        <g transform="matrix(1,0,0,1.59215,0,-8.99183)">
            <rect x="3.63" y="14.904" width="16.861" height="0.562" style="fill:rgb(127,127,127);"/>
        </g>
        <g transform="matrix(1.59215,0,0,0.926382,-8.84971,0.957383)">
            <rect x="14.664" y="2.878" width="0.562" height="17.985" style="fill:rgb(127,127,127);"/>
        </g>
        <g transform="matrix(1.59215,0,0,0.926382,-5.53188,0.830468)">
            <rect x="9.061" y="3.015" width="0.562" height="17.985" style="fill:rgb(127,127,127);"/>
        </g>
    </g>
    <g id="rect826" transform="matrix(1.1036,0,0,1.04279,-1.24333,-0.509709)">
        <rect x="3.638" y="3.026" width="16.872" height="17.856"
              style="fill:rgb(127,127,127);fill-opacity:0.24;stroke:rgb(127,127,127);stroke-width:0.93px;"/>
    </g>
    <g transform="matrix(1.38088,0,0,1.38088,-4.82086,-5.15218)">
        <path d="M12.25,15.039L13.647,16.733C13.775,16.887 14.007,16.91 14.162,16.782L15.386,15.772L13.523,13.514L12.299,14.524C12.143,14.653 12.121,14.883 12.25,15.039Z"
              style="fill:rgb(235,235,235);fill-rule:nonzero;"/>
        <path d="M8.597,8.983L10.855,10.846C10.855,10.846 11.723,9.71 12.67,8.615C13.39,7.782 14.879,7.812 15.718,8.651C16.557,9.49 16.586,10.979 15.754,11.699C14.659,12.646 13.523,13.514 13.523,13.514L15.386,15.772C15.386,15.772 17.243,14.348 17.784,13.803C19.766,11.806 19.773,8.576 17.783,6.586C15.793,4.596 12.563,4.603 10.566,6.585C10.021,7.126 8.597,8.983 8.597,8.983Z"
              style="fill:rgb(198,44,66);fill-rule:nonzero;"/>
        <path d="M9.33,12.119L7.636,10.722C7.48,10.593 7.458,10.363 7.587,10.207L8.597,8.983L10.855,10.846L9.845,12.07C9.776,12.154 9.672,12.203 9.563,12.203C9.478,12.203 9.395,12.174 9.33,12.119Z"
              style="fill:rgb(235,235,235);fill-rule:nonzero;"/>
        <g transform="matrix(1.65919,-0.0551223,0.0498355,1.50006,-5.92661,-5.43094)">
            <path d="M6.318,12.579L7.063,13.102L6.498,13.906C6.497,13.908 6.498,13.911 6.497,13.914C6.492,13.922 6.492,13.929 6.491,13.938C6.49,13.947 6.489,13.954 6.492,13.963C6.493,13.966 6.491,13.968 6.492,13.971C6.495,13.977 6.501,13.978 6.505,13.983C6.509,13.988 6.509,13.995 6.514,13.999C6.517,14.001 6.52,13.999 6.523,14.001C6.531,14.005 6.539,14.005 6.548,14.006C6.557,14.007 6.564,14.007 6.572,14.005C6.575,14.005 6.578,14.006 6.58,14.005L8.328,13.217C8.35,13.207 8.364,13.186 8.367,13.162C8.369,13.138 8.358,13.115 8.339,13.101L7.593,12.578L8.158,11.774C8.159,11.771 8.158,11.768 8.159,11.766C8.164,11.758 8.164,11.75 8.165,11.741C8.166,11.733 8.167,11.725 8.164,11.717C8.163,11.714 8.165,11.711 8.164,11.708C8.16,11.7 8.153,11.694 8.146,11.688C8.144,11.686 8.144,11.683 8.141,11.681L8.137,11.678C8.12,11.669 8.1,11.668 8.082,11.675C8.08,11.676 8.078,11.674 8.075,11.675L6.328,12.463C6.307,12.473 6.292,12.494 6.289,12.518C6.288,12.542 6.299,12.565 6.318,12.579ZM7.196,13.028L7.195,13.03L7.196,13.028Z"
                  style="fill:rgb(252,189,0);fill-rule:nonzero;"/>
        </g>
        <g transform="matrix(1.65919,-0.0551223,0.0498355,1.50006,-1.41336,-0.91769)">
            <path d="M6.318,12.579L7.063,13.102L6.498,13.906C6.497,13.908 6.498,13.911 6.497,13.914C6.492,13.922 6.492,13.929 6.491,13.938C6.49,13.947 6.489,13.954 6.492,13.963C6.493,13.966 6.491,13.968 6.492,13.971C6.495,13.977 6.501,13.978 6.505,13.983C6.509,13.988 6.509,13.995 6.514,13.999C6.517,14.001 6.52,13.999 6.523,14.001C6.531,14.005 6.539,14.005 6.548,14.006C6.557,14.007 6.564,14.007 6.572,14.005C6.575,14.005 6.578,14.006 6.58,14.005L8.328,13.217C8.35,13.207 8.364,13.186 8.367,13.162C8.369,13.138 8.358,13.115 8.339,13.101L7.593,12.578L8.158,11.774C8.159,11.771 8.158,11.768 8.159,11.766C8.164,11.758 8.164,11.75 8.165,11.741C8.166,11.733 8.167,11.725 8.164,11.717C8.163,11.714 8.165,11.711 8.164,11.708C8.16,11.7 8.153,11.694 8.146,11.688C8.144,11.686 8.144,11.683 8.141,11.681L8.137,11.678C8.12,11.669 8.1,11.668 8.082,11.675C8.08,11.676 8.078,11.674 8.075,11.675L6.328,12.463C6.307,12.473 6.292,12.494 6.289,12.518C6.288,12.542 6.299,12.565 6.318,12.579ZM7.196,13.028L7.195,13.03L7.196,13.028Z"
                  style="fill:rgb(252,189,0);fill-rule:nonzero;"/>
        </g>
    </g>
</svg>
