<?xml version="1.0" encoding="UTF-8" standalone="no"?>
<!DOCTYPE svg PUBLIC "-//W3C//DTD SVG 1.1//EN" "http://www.w3.org/Graphics/SVG/1.1/DTD/svg11.dtd">
<svg width="100%" height="100%" viewBox="0 0 24 24" version="1.1" xmlns="http://www.w3.org/2000/svg"
     xmlns:xlink="http://www.w3.org/1999/xlink" xml:space="preserve" xmlns:serif="http://www.serif.com/"
     style="fill-rule:evenodd;clip-rule:evenodd;stroke-linejoin:round;stroke-miterlimit:2;">
    <g transform="matrix(0.0281,0,0,0.0281,0.76,0.76)">
        <path d="M700,250L550,250L550,100C549.969,72.583 527.417,50.031 500,50L100,50C72.584,50.034 50.034,72.584 50,100L50,500C50.034,527.416 72.584,549.966 100,550L250,550L250,700C250,727.429 272.571,750 300,750L700,750C727.429,750 750,727.429 750,700L750,300C750,272.571 727.429,250 700,250ZM300,500L300,300L500,300L500,500L300,500ZM99.97,100L500,100L500,250L300,250C272.583,250.031 250.031,272.583 250,300L250,500L100,500L99.97,100Z"
              style="fill:rgb(187,187,187);fill-rule:nonzero;"/>
    </g>
</svg>
