<?xml version="1.0" encoding="UTF-8" standalone="no"?>
<!DOCTYPE svg PUBLIC "-//W3C//DTD SVG 1.1//EN" "http://www.w3.org/Graphics/SVG/1.1/DTD/svg11.dtd">
<svg width="100%" height="100%" viewBox="0 0 24 24" version="1.1" xmlns="http://www.w3.org/2000/svg"
     xmlns:xlink="http://www.w3.org/1999/xlink" xml:space="preserve" xmlns:serif="http://www.serif.com/"
     style="fill-rule:evenodd;clip-rule:evenodd;stroke-linejoin:round;stroke-miterlimit:2;">
    <g transform="matrix(1.22485,0,0,1.22485,-2.82185,-2.08576)">
        <path d="M7.202,18.5L7.202,17L14.379,17C15.422,17 16.321,16.655 17.073,15.966C17.826,15.277 18.202,14.426 18.202,13.413C18.202,12.401 17.826,11.551 17.073,10.865C16.321,10.179 15.422,9.837 14.379,9.837L7.358,9.837L10.14,12.619L9.087,13.673L4.5,9.087L9.087,4.5L10.14,5.554L7.358,8.337L14.379,8.337C15.842,8.337 17.095,8.825 18.138,9.801C19.18,10.777 19.702,11.981 19.702,13.413C19.702,14.846 19.18,16.051 18.138,17.031C17.095,18.01 15.842,18.5 14.379,18.5L7.202,18.5Z"
              style="fill:rgb(187,187,187);fill-rule:nonzero;"/>
    </g>
</svg>
