<?xml version="1.0" encoding="UTF-8" standalone="no"?>
<!DOCTYPE svg PUBLIC "-//W3C//DTD SVG 1.1//EN" "http://www.w3.org/Graphics/SVG/1.1/DTD/svg11.dtd">
<svg width="100%" height="100%" viewBox="0 0 24 24" version="1.1" xmlns="http://www.w3.org/2000/svg"
     xmlns:xlink="http://www.w3.org/1999/xlink" xml:space="preserve" xmlns:serif="http://www.serif.com/"
     style="fill-rule:evenodd;clip-rule:evenodd;stroke-linejoin:round;">
    <g id="Ebene-1" serif:id="Ebene 1" transform="matrix(1.09524,0,0,1.09524,-1.14286,-1127.44)">
        <g id="rect826" transform="matrix(0.96675,0,0,0.96675,0.398997,34.5917)">
            <rect x="3.5" y="1031.86" width="17" height="17" style="fill:rgb(127,127,127);fill-opacity:0.24;"/>
            <path d="M21.444,1049.8L21.444,1030.92L2.556,1030.92L2.556,1049.8L21.444,1049.8ZM20.5,1031.86L3.5,1031.86L3.5,1048.86L20.5,1048.86L20.5,1031.86Z"
                  style="fill:rgb(212,212,212);"/>
        </g>
        <g>
            <g id="path4927-9-1" transform="matrix(1.1413,0,0,1.1413,-9.91302,-145.522)">
                <circle cx="12" cy="1031.86" r="2"
                        style="fill:rgb(0,109,208);stroke:rgb(248,230,60);stroke-width:0.5px;stroke-dasharray:0,5.5;"/>
            </g>
            <g id="path4927-9-1-9" transform="matrix(1.1413,0,0,1.1413,-3.17932,-155.223)">
                <circle cx="20.5" cy="1040.36" r="2"
                        style="fill:rgb(0,109,208);stroke:rgb(248,230,60);stroke-width:0.5px;stroke-dasharray:0,5.5;"/>
            </g>
            <g id="path4927-9-1-4" transform="matrix(1.1413,0,0,1.1413,6.52175,-148.489)">
                <circle cx="12" cy="1048.86" r="2"
                        style="fill:rgb(0,109,208);stroke:rgb(248,230,60);stroke-width:0.5px;stroke-dasharray:0,5.5;"/>
            </g>
            <g id="path4927-9-1-90" transform="matrix(1.1413,0,0,1.1413,-0.211954,-138.788)">
                <circle cx="3.5" cy="1040.36" r="2"
                        style="fill:rgb(0,109,208);stroke:rgb(248,230,60);stroke-width:0.5px;stroke-dasharray:0,5.5;"/>
            </g>
        </g>
    </g>
</svg>
