<?xml version="1.0" encoding="UTF-8" standalone="no"?>
<!DOCTYPE svg PUBLIC "-//W3C//DTD SVG 1.1//EN" "http://www.w3.org/Graphics/SVG/1.1/DTD/svg11.dtd">
<svg width="100%" height="100%" viewBox="0 0 24 24" version="1.1" xmlns="http://www.w3.org/2000/svg" xmlns:xlink="http://www.w3.org/1999/xlink" xml:space="preserve" xmlns:serif="http://www.serif.com/" style="fill-rule:evenodd;clip-rule:evenodd;stroke-linejoin:round;">
    <g id="Ebene-1" serif:id="Ebene 1" transform="matrix(1.09524,0,0,1.09524,-1.14286,-1127.44)">
        <rect id="rect826" x="3.5" y="1031.86" width="17" height="17" style="fill:rgb(127,127,127);fill-opacity:0.24;"/>
        <g>
            <g transform="matrix(4.56522,0,0,0.228261,-6.26087,1031.19)">
                <rect x="2" y="1" width="4" height="4" style="fill:rgb(127,127,127);"/>
            </g>
            <g transform="matrix(4.56522,0,0,0.228261,-6.26087,1048.18)">
                <rect x="2" y="1" width="4" height="4" style="fill:rgb(127,127,127);"/>
            </g>
            <g transform="matrix(2.79539e-16,-4.56522,0.228261,1.39769e-17,19.8152,1058.45)">
                <rect x="2" y="1" width="4" height="4" style="fill:rgb(127,127,127);"/>
            </g>
            <g transform="matrix(2.79539e-16,-4.56522,0.228261,1.39769e-17,2.81522,1058.62)">
                <rect x="2" y="1" width="4" height="4" style="fill:rgb(127,127,127);"/>
            </g>
        </g>
        <g>
            <g id="path4927-9-1" transform="matrix(1,0,0,1,-8.5,0)">
                <circle cx="12" cy="1031.86" r="2" style="fill:rgb(0,109,208);stroke:rgb(248,230,60);stroke-width:0.5px;stroke-dasharray:0,5.5;"/>
            </g>
            <g id="path4927-9-1-9" transform="matrix(1,0,0,1,0,-8.5)">
                <circle cx="20.5" cy="1040.36" r="2" style="fill:rgb(0,109,208);stroke:rgb(248,230,60);stroke-width:0.5px;stroke-dasharray:0,5.5;"/>
            </g>
            <g id="path4927-9-1-4" transform="matrix(1,0,0,1,8.5,0)">
                <circle cx="12" cy="1048.86" r="2" style="fill:rgb(0,109,208);stroke:rgb(248,230,60);stroke-width:0.5px;stroke-dasharray:0,5.5;"/>
            </g>
            <g id="path4927-9-1-90" transform="matrix(1,0,0,1,0,8.21739)">
                <circle cx="3.5" cy="1040.36" r="2" style="fill:rgb(0,109,208);stroke:rgb(248,230,60);stroke-width:0.5px;stroke-dasharray:0,5.5;"/>
            </g>
        </g>
    </g>
</svg>
