<?xml version="1.0" encoding="UTF-8" standalone="no"?>
<!DOCTYPE svg PUBLIC "-//W3C//DTD SVG 1.1//EN" "http://www.w3.org/Graphics/SVG/1.1/DTD/svg11.dtd">
<svg width="100%" height="100%" viewBox="0 0 24 24" version="1.1" xmlns="http://www.w3.org/2000/svg"
     xmlns:xlink="http://www.w3.org/1999/xlink" xml:space="preserve" xmlns:serif="http://www.serif.com/"
     style="fill-rule:evenodd;clip-rule:evenodd;stroke-linejoin:round;stroke-miterlimit:2;">
    <g transform="matrix(0.894736,0,0,0.882352,1.26316,1.41177)">
        <path d="M8.5,20.5L8.5,18.5L4.308,18.5C3.803,18.5 3.375,18.325 3.025,17.975C2.675,17.625 2.5,17.197 2.5,16.692L2.5,5.308C2.5,4.803 2.675,4.375 3.025,4.025C3.375,3.675 3.803,3.5 4.308,3.5L19.692,3.5C20.197,3.5 20.625,3.675 20.975,4.025C21.325,4.375 21.5,4.803 21.5,5.308L21.5,16.692C21.5,17.197 21.325,17.625 20.975,17.975C20.625,18.325 20.197,18.5 19.692,18.5L15.5,18.5L15.5,20.5L8.5,20.5ZM14.382,18.133L14.382,19.367L9.618,19.367L9.618,18.133L14.382,18.133ZM4.308,17L19.692,17C19.769,17 19.84,16.968 19.904,16.904C19.968,16.84 20,16.769 20,16.692L20,5.308C20,5.231 19.968,5.16 19.904,5.096C19.84,5.032 19.769,5 19.692,5L4.308,5C4.231,5 4.16,5.032 4.096,5.096C4.032,5.16 4,5.231 4,5.308L4,16.692C4,16.769 4.032,16.84 4.096,16.904C4.16,16.968 4.231,17 4.308,17ZM7.75,14.596L8.942,14.596L8.942,11.096L7.75,11.096L7.75,12.25L6.25,12.25L6.25,13.442L7.75,13.442L7.75,14.596ZM9.942,13.442L17.75,13.442L17.75,12.25L9.942,12.25L9.942,13.442ZM15.058,10.904L16.25,10.904L16.25,9.75L17.75,9.75L17.75,8.558L16.25,8.558L16.25,7.404L15.058,7.404L15.058,10.904ZM6.25,9.75L14.058,9.75L14.058,8.558L6.25,8.558L6.25,9.75Z"
              style="fill:white;"/>
    </g>
</svg>
